<?xml version="1.0" encoding="UTF-8" standalone="no"?>
<!-- Created with Inkscape (http://www.inkscape.org/) -->

<svg
   width="90.800003mm"
   height="90.800003mm"
   viewBox="0 0 90.800003 90.800003"
   version="1.1"
   id="svg1"
   inkscape:version="1.4.2 (ebf0e940d0, 2025-05-08)"
   sodipodi:docname="railcp_back.svg"
   inkscape:export-filename="/tmp/railcp_back.svg"
   inkscape:export-xdpi="96"
   inkscape:export-ydpi="96"
   xml:space="preserve"
   xmlns:inkscape="http://www.inkscape.org/namespaces/inkscape"
   xmlns:sodipodi="http://sodipodi.sourceforge.net/DTD/sodipodi-0.dtd"
   xmlns="http://www.w3.org/2000/svg"
   xmlns:svg="http://www.w3.org/2000/svg"><sodipodi:namedview
     id="namedview1"
     pagecolor="#ffffff"
     bordercolor="#000000"
     borderopacity="0.25"
     inkscape:showpageshadow="2"
     inkscape:pageopacity="0.0"
     inkscape:pagecheckerboard="0"
     inkscape:deskcolor="#d1d1d1"
     inkscape:document-units="mm"
     inkscape:zoom="1.1502489"
     inkscape:cx="397.30531"
     inkscape:cy="169.09384"
     inkscape:window-width="1920"
     inkscape:window-height="1156"
     inkscape:window-x="0"
     inkscape:window-y="0"
     inkscape:window-maximized="1"
     inkscape:current-layer="layer1" /><defs
     id="defs1"><rect
       x="63.464525"
       y="139.96971"
       width="223.4299"
       height="41.730099"
       id="rect65" /><rect
       x="-8.6937705"
       y="-204.30361"
       width="211.25862"
       height="104.32524"
       id="rect64" /><rect
       x="75.635804"
       y="181.6998"
       width="212.99738"
       height="123.45154"
       id="rect63" /><rect
       x="96.500853"
       y="-115.62715"
       width="267.76814"
       height="43.468852"
       id="rect3" /><clipPath
       clipPathUnits="userSpaceOnUse"
       id="clipPath49-0"><path
         d="M 324,120 H 676 V 621 H 324 Z"
         transform="translate(-499.99998,-370.5)"
         id="path49-2" /></clipPath><clipPath
       clipPathUnits="userSpaceOnUse"
       id="clipPath50-3"><path
         d="M 324,120 H 676 V 621 H 324 Z"
         transform="translate(-372.85001,-329.91)"
         id="path50-7" /></clipPath><clipPath
       clipPathUnits="userSpaceOnUse"
       id="clipPath51-5"><path
         d="M 324,120 H 676 V 621 H 324 Z"
         transform="translate(-392.12443,-329.91)"
         id="path51-9" /></clipPath><clipPath
       clipPathUnits="userSpaceOnUse"
       id="clipPath52-2"><path
         d="M 324,120 H 676 V 621 H 324 Z"
         transform="translate(-409.19082,-329.91)"
         id="path52-2" /></clipPath><clipPath
       clipPathUnits="userSpaceOnUse"
       id="clipPath53-8"><path
         d="M 324,120 H 676 V 621 H 324 Z"
         transform="translate(-425.65956,-329.91)"
         id="path53-9" /></clipPath><clipPath
       clipPathUnits="userSpaceOnUse"
       id="clipPath54-7"><path
         d="M 324,120 H 676 V 621 H 324 Z"
         transform="translate(-435.72011,-329.91)"
         id="path54-3" /></clipPath><clipPath
       clipPathUnits="userSpaceOnUse"
       id="clipPath55-6"><path
         d="M 324,120 H 676 V 621 H 324 Z"
         transform="translate(-452.00625,-329.91)"
         id="path55-1" /></clipPath><clipPath
       clipPathUnits="userSpaceOnUse"
       id="clipPath56-2"><path
         d="M 324,120 H 676 V 621 H 324 Z"
         transform="translate(-459.80898,-329.91)"
         id="path56-9" /></clipPath><clipPath
       clipPathUnits="userSpaceOnUse"
       id="clipPath57-3"><path
         d="M 324,120 H 676 V 621 H 324 Z"
         transform="translate(-476.27772,-329.91)"
         id="path57-1" /></clipPath><clipPath
       clipPathUnits="userSpaceOnUse"
       id="clipPath58-9"><path
         d="M 324,120 H 676 V 621 H 324 Z"
         transform="translate(-492.21524,-329.91)"
         id="path58-4" /></clipPath><clipPath
       clipPathUnits="userSpaceOnUse"
       id="clipPath59-7"><path
         d="M 324,120 H 676 V 621 H 324 Z"
         transform="translate(-502.57461,-329.91)"
         id="path59-8" /></clipPath><clipPath
       clipPathUnits="userSpaceOnUse"
       id="clipPath60-4"><path
         d="M 324,120 H 676 V 621 H 324 Z"
         transform="translate(-510.37735,-329.91)"
         id="path60-5" /></clipPath><clipPath
       clipPathUnits="userSpaceOnUse"
       id="clipPath61-0"><path
         d="M 324,120 H 676 V 621 H 324 Z"
         transform="translate(-529.22012,-329.91)"
         id="path61-3" /></clipPath><clipPath
       clipPathUnits="userSpaceOnUse"
       id="clipPath62-6"><path
         d="M 324,120 H 676 V 621 H 324 Z"
         transform="translate(-537.02285,-329.91)"
         id="path62-1" /></clipPath><clipPath
       clipPathUnits="userSpaceOnUse"
       id="clipPath63-0"><path
         d="M 324,120 H 676 V 621 H 324 Z"
         transform="translate(-553.30899,-329.91)"
         id="path63-6" /></clipPath><clipPath
       clipPathUnits="userSpaceOnUse"
       id="clipPath64-3"><path
         d="M 324,120 H 676 V 621 H 324 Z"
         transform="translate(-563.36954,-329.91)"
         id="path64-2" /></clipPath><clipPath
       clipPathUnits="userSpaceOnUse"
       id="clipPath65-0"><path
         d="M 324,120 H 676 V 621 H 324 Z"
         transform="translate(-574.12735,-329.91)"
         id="path65-6" /></clipPath><clipPath
       clipPathUnits="userSpaceOnUse"
       id="clipPath66-1"><path
         d="M 324,120 H 676 V 621 H 324 Z"
         transform="translate(-591.19375,-329.91)"
         id="path66-5" /></clipPath><clipPath
       clipPathUnits="userSpaceOnUse"
       id="clipPath67-5"><path
         d="M 324,120 H 676 V 621 H 324 Z"
         transform="translate(-601.55312,-329.91)"
         id="path67-4" /></clipPath><clipPath
       clipPathUnits="userSpaceOnUse"
       id="clipPath262-9"><path
         d="M 324,120 H 676 V 621 H 324 Z"
         transform="translate(-499.99998,-370.5)"
         id="path262-3" /></clipPath><clipPath
       clipPathUnits="userSpaceOnUse"
       id="clipPath263-7"><path
         d="M 324,120 H 676 V 621 H 324 Z"
         transform="matrix(0.98911968,0,0,0.98911969,-390.05393,-37.950445)"
         id="path263-4" /></clipPath><clipPath
       clipPathUnits="userSpaceOnUse"
       id="clipPath264-5"><path
         d="M 324,120 H 676 V 621 H 324 Z"
         transform="matrix(0.98911968,0,0,0.98911969,-390.05577,-37.950793)"
         id="path264-2" /></clipPath><clipPath
       clipPathUnits="userSpaceOnUse"
       id="clipPath265-5"><path
         d="M 324,120 H 676 V 621 H 324 Z"
         transform="matrix(0.98911968,0,0,0.98911969,-390.0534,-37.942582)"
         id="path265-4" /></clipPath><clipPath
       clipPathUnits="userSpaceOnUse"
       id="clipPath88-0"><path
         d="M 324,120 H 676 V 621 H 324 Z"
         transform="translate(-499.99998,-370.5)"
         id="path88-7" /></clipPath><clipPath
       clipPathUnits="userSpaceOnUse"
       id="clipPath89-8"><path
         d="M 324,120 H 676 V 621 H 324 Z"
         transform="translate(-385.73,-407.28)"
         id="path89-6" /></clipPath><clipPath
       clipPathUnits="userSpaceOnUse"
       id="clipPath90-8"><path
         d="M 324,120 H 676 V 621 H 324 Z"
         transform="translate(-399.32375,-407.28)"
         id="path90-8" /></clipPath><clipPath
       clipPathUnits="userSpaceOnUse"
       id="clipPath91-4"><path
         d="M 324,120 H 676 V 621 H 324 Z"
         transform="translate(-420.91798,-407.28)"
         id="path91-3" /></clipPath><clipPath
       clipPathUnits="userSpaceOnUse"
       id="clipPath92-1"><path
         d="M 324,120 H 676 V 621 H 324 Z"
         transform="translate(-434.3135,-407.28)"
         id="path92-4" /></clipPath><clipPath
       clipPathUnits="userSpaceOnUse"
       id="clipPath93-9"><path
         d="M 324,120 H 676 V 621 H 324 Z"
         transform="translate(-440.96876,-407.28)"
         id="path93-2" /></clipPath><clipPath
       clipPathUnits="userSpaceOnUse"
       id="clipPath94-0"><path
         d="M 324,120 H 676 V 621 H 324 Z"
         transform="translate(-454.56252,-407.28)"
         id="path94-6" /></clipPath><clipPath
       clipPathUnits="userSpaceOnUse"
       id="clipPath95-8"><path
         d="M 324,120 H 676 V 621 H 324 Z"
         transform="translate(-468.6094,-407.28)"
         id="path95-9" /></clipPath><clipPath
       clipPathUnits="userSpaceOnUse"
       id="clipPath96-2"><path
         d="M 324,120 H 676 V 621 H 324 Z"
         transform="translate(-477.19043,-407.28)"
         id="path96-6" /></clipPath><clipPath
       clipPathUnits="userSpaceOnUse"
       id="clipPath97-6"><path
         d="M 324,120 H 676 V 621 H 324 Z"
         transform="translate(-483.84573,-407.28)"
         id="path97-4" /></clipPath><clipPath
       clipPathUnits="userSpaceOnUse"
       id="clipPath98-9"><path
         d="M 324,120 H 676 V 621 H 324 Z"
         transform="translate(-490.50099,-407.28)"
         id="path98-5" /></clipPath><clipPath
       clipPathUnits="userSpaceOnUse"
       id="clipPath99-0"><path
         d="M 324,120 H 676 V 621 H 324 Z"
         transform="translate(-505.05764,-407.28)"
         id="path99-4" /></clipPath><clipPath
       clipPathUnits="userSpaceOnUse"
       id="clipPath100-8"><path
         d="M 324,120 H 676 V 621 H 324 Z"
         transform="translate(-523.90481,-407.28)"
         id="path100-7" /></clipPath><clipPath
       clipPathUnits="userSpaceOnUse"
       id="clipPath101-1"><path
         d="M 324,120 H 676 V 621 H 324 Z"
         transform="translate(-530.56007,-407.28)"
         id="path101-7" /></clipPath><clipPath
       clipPathUnits="userSpaceOnUse"
       id="clipPath102-2"><path
         d="M 324,120 H 676 V 621 H 324 Z"
         transform="translate(-539.73586,-407.28)"
         id="path102-7" /></clipPath><clipPath
       clipPathUnits="userSpaceOnUse"
       id="clipPath103-2"><path
         d="M 324,120 H 676 V 621 H 324 Z"
         transform="translate(-548.5718,-407.28)"
         id="path103-2" /></clipPath><clipPath
       clipPathUnits="userSpaceOnUse"
       id="clipPath104-6"><path
         d="M 324,120 H 676 V 621 H 324 Z"
         transform="translate(-555.22707,-407.28)"
         id="path104-1" /></clipPath><clipPath
       clipPathUnits="userSpaceOnUse"
       id="clipPath105-0"><path
         d="M 324,120 H 676 V 621 H 324 Z"
         transform="translate(-568.62258,-407.28)"
         id="path105-6" /></clipPath><clipPath
       clipPathUnits="userSpaceOnUse"
       id="clipPath106-1"><path
         d="M 324,120 H 676 V 621 H 324 Z"
         transform="translate(-577.20364,-407.28)"
         id="path106-5" /></clipPath><clipPath
       clipPathUnits="userSpaceOnUse"
       id="clipPath107-9"><path
         d="M 324,120 H 676 V 621 H 324 Z"
         transform="translate(-583.85891,-407.28)"
         id="path107-4" /></clipPath><clipPath
       clipPathUnits="userSpaceOnUse"
       id="clipPath108-9"><path
         d="M 324,120 H 676 V 621 H 324 Z"
         transform="translate(-598.41553,-407.28)"
         id="path108-0" /></clipPath><clipPath
       clipPathUnits="userSpaceOnUse"
       id="clipPath109-9"><path
         d="M 324,120 H 676 V 621 H 324 Z"
         transform="translate(-376.62001,-440.05)"
         id="path109-1" /></clipPath><clipPath
       clipPathUnits="userSpaceOnUse"
       id="clipPath110-7"><path
         d="M 324,120 H 676 V 621 H 324 Z"
         transform="translate(-385.20104,-440.05)"
         id="path110-7" /></clipPath><clipPath
       clipPathUnits="userSpaceOnUse"
       id="clipPath111-1"><path
         d="M 324,120 H 676 V 621 H 324 Z"
         transform="translate(-393.47057,-440.05)"
         id="path111-1" /></clipPath><clipPath
       clipPathUnits="userSpaceOnUse"
       id="clipPath112-5"><path
         d="M 324,120 H 676 V 621 H 324 Z"
         transform="translate(-407.36168,-440.05)"
         id="path112-9" /></clipPath><clipPath
       clipPathUnits="userSpaceOnUse"
       id="clipPath113-7"><path
         d="M 324,120 H 676 V 621 H 324 Z"
         transform="translate(-421.40856,-440.05)"
         id="path113-7" /></clipPath><clipPath
       clipPathUnits="userSpaceOnUse"
       id="clipPath114-6"><path
         d="M 324,120 H 676 V 621 H 324 Z"
         transform="translate(-434.63414,-440.05)"
         id="path114-7" /></clipPath><clipPath
       clipPathUnits="userSpaceOnUse"
       id="clipPath115-3"><path
         d="M 324,120 H 676 V 621 H 324 Z"
         transform="translate(-448.93591,-440.05)"
         id="path115-6" /></clipPath><clipPath
       clipPathUnits="userSpaceOnUse"
       id="clipPath116-5"><path
         d="M 324,120 H 676 V 621 H 324 Z"
         transform="translate(-463.49256,-440.05)"
         id="path116-6" /></clipPath><clipPath
       clipPathUnits="userSpaceOnUse"
       id="clipPath117-3"><path
         d="M 324,120 H 676 V 621 H 324 Z"
         transform="translate(-473.03649,-440.05)"
         id="path117-9" /></clipPath><clipPath
       clipPathUnits="userSpaceOnUse"
       id="clipPath118-4"><path
         d="M 324,120 H 676 V 621 H 324 Z"
         transform="translate(-481.61755,-440.05)"
         id="path118-8" /></clipPath><clipPath
       clipPathUnits="userSpaceOnUse"
       id="clipPath119-1"><path
         d="M 324,120 H 676 V 621 H 324 Z"
         transform="translate(-488.27281,-440.05)"
         id="path119-2" /></clipPath><clipPath
       clipPathUnits="userSpaceOnUse"
       id="clipPath120-9"><path
         d="M 324,120 H 676 V 621 H 324 Z"
         transform="translate(-502.16393,-440.05)"
         id="path120-3" /></clipPath><clipPath
       clipPathUnits="userSpaceOnUse"
       id="clipPath121-9"><path
         d="M 324,120 H 676 V 621 H 324 Z"
         transform="translate(-516.21081,-440.05)"
         id="path121-0" /></clipPath><clipPath
       clipPathUnits="userSpaceOnUse"
       id="clipPath122-8"><path
         d="M 324,120 H 676 V 621 H 324 Z"
         transform="translate(-530.59753,-440.05)"
         id="path122-8" /></clipPath><clipPath
       clipPathUnits="userSpaceOnUse"
       id="clipPath123-5"><path
         d="M 324,120 H 676 V 621 H 324 Z"
         transform="translate(-537.25279,-440.05)"
         id="path123-0" /></clipPath><clipPath
       clipPathUnits="userSpaceOnUse"
       id="clipPath124-9"><path
         d="M 324,120 H 676 V 621 H 324 Z"
         transform="translate(-550.47841,-440.05)"
         id="path124-6" /></clipPath><clipPath
       clipPathUnits="userSpaceOnUse"
       id="clipPath125-3"><path
         d="M 324,120 H 676 V 621 H 324 Z"
         transform="translate(-558.77624,-440.05)"
         id="path125-8" /></clipPath><clipPath
       clipPathUnits="userSpaceOnUse"
       id="clipPath126-5"><path
         d="M 324,120 H 676 V 621 H 324 Z"
         transform="translate(-573.33289,-440.05)"
         id="path126-6" /></clipPath><clipPath
       clipPathUnits="userSpaceOnUse"
       id="clipPath127-1"><path
         d="M 324,120 H 676 V 621 H 324 Z"
         transform="translate(-581.60242,-440.05)"
         id="path127-1" /></clipPath><clipPath
       clipPathUnits="userSpaceOnUse"
       id="clipPath128-5"><path
         d="M 324,120 H 676 V 621 H 324 Z"
         transform="translate(-595.49354,-440.05)"
         id="path128-9" /></clipPath><clipPath
       clipPathUnits="userSpaceOnUse"
       id="clipPath129-8"><path
         d="M 324,120 H 676 V 621 H 324 Z"
         transform="translate(-609.79527,-440.05)"
         id="path129-4" /></clipPath><clipPath
       clipPathUnits="userSpaceOnUse"
       id="clipPath130-8"><path
         d="M 324,120 H 676 V 621 H 324 Z"
         transform="translate(-398.62,-472.82001)"
         id="path130-1" /></clipPath><clipPath
       clipPathUnits="userSpaceOnUse"
       id="clipPath131-0"><path
         d="M 324,120 H 676 V 621 H 324 Z"
         transform="translate(-407.79578,-472.82001)"
         id="path131-3" /></clipPath><clipPath
       clipPathUnits="userSpaceOnUse"
       id="clipPath132-0"><path
         d="M 324,120 H 676 V 621 H 324 Z"
         transform="translate(-422.3524,-472.82001)"
         id="path132-4" /></clipPath><clipPath
       clipPathUnits="userSpaceOnUse"
       id="clipPath133-4"><path
         d="M 324,120 H 676 V 621 H 324 Z"
         transform="translate(-431.18835,-472.82001)"
         id="path133-4" /></clipPath><clipPath
       clipPathUnits="userSpaceOnUse"
       id="clipPath134-4"><path
         d="M 324,120 H 676 V 621 H 324 Z"
         transform="translate(-437.84361,-472.82001)"
         id="path134-7" /></clipPath><clipPath
       clipPathUnits="userSpaceOnUse"
       id="clipPath135-6"><path
         d="M 324,120 H 676 V 621 H 324 Z"
         transform="translate(-449.70985,-472.82001)"
         id="path135-3" /></clipPath><clipPath
       clipPathUnits="userSpaceOnUse"
       id="clipPath136-1"><path
         d="M 324,120 H 676 V 621 H 324 Z"
         transform="translate(-464.26647,-472.82001)"
         id="path136-7" /></clipPath><clipPath
       clipPathUnits="userSpaceOnUse"
       id="clipPath137-5"><path
         d="M 324,120 H 676 V 621 H 324 Z"
         transform="translate(-478.28504,-472.82001)"
         id="path137-9" /></clipPath><clipPath
       clipPathUnits="userSpaceOnUse"
       id="clipPath138-6"><path
         d="M 324,120 H 676 V 621 H 324 Z"
         transform="translate(-487.12099,-472.82001)"
         id="path138-2" /></clipPath><clipPath
       clipPathUnits="userSpaceOnUse"
       id="clipPath139-1"><path
         d="M 324,120 H 676 V 621 H 324 Z"
         transform="translate(-493.77625,-472.82001)"
         id="path139-7" /></clipPath><clipPath
       clipPathUnits="userSpaceOnUse"
       id="clipPath140-8"><path
         d="M 324,120 H 676 V 621 H 324 Z"
         transform="translate(-507.17177,-472.82001)"
         id="path140-5" /></clipPath><clipPath
       clipPathUnits="userSpaceOnUse"
       id="clipPath141-7"><path
         d="M 324,120 H 676 V 621 H 324 Z"
         transform="translate(-521.72839,-472.82001)"
         id="path141-4" /></clipPath><clipPath
       clipPathUnits="userSpaceOnUse"
       id="clipPath142-1"><path
         d="M 324,120 H 676 V 621 H 324 Z"
         transform="translate(-535.77527,-472.82001)"
         id="path142-8" /></clipPath><clipPath
       clipPathUnits="userSpaceOnUse"
       id="clipPath143-5"><path
         d="M 324,120 H 676 V 621 H 324 Z"
         transform="translate(-544.35633,-472.82001)"
         id="path143-9" /></clipPath><clipPath
       clipPathUnits="userSpaceOnUse"
       id="clipPath144-7"><path
         d="M 324,120 H 676 V 621 H 324 Z"
         transform="translate(-558.24744,-472.82001)"
         id="path144-5" /></clipPath><clipPath
       clipPathUnits="userSpaceOnUse"
       id="clipPath145-3"><path
         d="M 324,120 H 676 V 621 H 324 Z"
         transform="translate(-564.90271,-472.82001)"
         id="path145-8" /></clipPath><clipPath
       clipPathUnits="userSpaceOnUse"
       id="clipPath146-8"><path
         d="M 324,120 H 676 V 621 H 324 Z"
         transform="translate(-578.94959,-472.82001)"
         id="path146-3" /></clipPath><clipPath
       clipPathUnits="userSpaceOnUse"
       id="clipPath147-1"><path
         d="M 324,120 H 676 V 621 H 324 Z"
         transform="translate(-592.54335,-472.82001)"
         id="path147-8" /></clipPath><clipPath
       clipPathUnits="userSpaceOnUse"
       id="clipPath148-9"><path
         d="M 324,120 H 676 V 621 H 324 Z"
         transform="translate(-440.98999,-505.59001)"
         id="path148-6" /></clipPath><clipPath
       clipPathUnits="userSpaceOnUse"
       id="clipPath149-4"><path
         d="M 324,120 H 676 V 621 H 324 Z"
         transform="translate(-459.83715,-505.59001)"
         id="path149-3" /></clipPath><clipPath
       clipPathUnits="userSpaceOnUse"
       id="clipPath150-3"><path
         d="M 324,120 H 676 V 621 H 324 Z"
         transform="translate(-474.3938,-505.59001)"
         id="path150-3" /></clipPath><clipPath
       clipPathUnits="userSpaceOnUse"
       id="clipPath151-8"><path
         d="M 324,120 H 676 V 621 H 324 Z"
         transform="translate(-483.22975,-505.59001)"
         id="path151-6" /></clipPath><clipPath
       clipPathUnits="userSpaceOnUse"
       id="clipPath152-0"><path
         d="M 324,120 H 676 V 621 H 324 Z"
         transform="translate(-496.29956,-505.59001)"
         id="path152-4" /></clipPath><clipPath
       clipPathUnits="userSpaceOnUse"
       id="clipPath153-8"><path
         d="M 324,120 H 676 V 621 H 324 Z"
         transform="translate(-502.95483,-505.59001)"
         id="path153-8" /></clipPath><clipPath
       clipPathUnits="userSpaceOnUse"
       id="clipPath154-8"><path
         d="M 324,120 H 676 V 621 H 324 Z"
         transform="translate(-517.51148,-505.59001)"
         id="path154-9" /></clipPath><clipPath
       clipPathUnits="userSpaceOnUse"
       id="clipPath155-7"><path
         d="M 324,120 H 676 V 621 H 324 Z"
         transform="translate(-531.4026,-505.59001)"
         id="path155-7" /></clipPath><clipPath
       clipPathUnits="userSpaceOnUse"
       id="clipPath156-6"><path
         d="M 324,120 H 676 V 621 H 324 Z"
         transform="translate(-545.78932,-505.59001)"
         id="path156-4" /></clipPath><mask
       maskUnits="userSpaceOnUse"
       id="mask7"><g
         id="g8"
         transform="matrix(13.669236,0,0,13.669236,-886.37586,31.703725)"><path
           id="path7"
           d="m -176.5,-251 h 353 v 502 h -353 z"
           style="fill:#ffffff;fill-opacity:1;fill-rule:nonzero;stroke:none"
           transform="matrix(0.21994256,0,0,0.22075792,182.43739,52.980514)"
           clip-path="url(#clipPath262-9)" /></g></mask><clipPath
       clipPathUnits="userSpaceOnUse"
       id="clipPath8"><path
         d="M 1078.2694,3.1325342e-8 H 2136.5386 V 1511.8134 H 1078.2694 Z"
         id="path8"
         style="stroke-width:1.33333" /></clipPath><mask
       maskUnits="userSpaceOnUse"
       id="mask9"><g
         id="g10"
         transform="matrix(12.350752,0,0,12.350752,-639.23723,168.39044)"><path
           id="path9"
           d="m -176.5,-251 h 353 v 502 h -353 z"
           style="fill:#ffffff;fill-opacity:1;fill-rule:nonzero;stroke:none"
           transform="matrix(0.24342216,0,0,0.24432456,181.90318,47.569284)"
           clip-path="url(#clipPath88-0)" /></g></mask><clipPath
       clipPathUnits="userSpaceOnUse"
       id="clipPath10"><path
         d="M 1078.2693,-1.0806908e-6 H 2136.5386 V 1511.8134 H 1078.2693 Z"
         id="path10"
         style="stroke-width:1.33334" /></clipPath><mask
       maskUnits="userSpaceOnUse"
       id="mask11"><g
         id="g13"
         transform="matrix(3.4495388,0,0,3.4367982,-730.30313,-159.43384)"><g
           id="g12"><path
             id="path11"
             d="m -176.5,-251 h 353 v 502 h -353 z"
             style="fill:#ffffff;fill-opacity:1;fill-rule:nonzero;stroke:none"
             transform="matrix(0.28989383,0,0,0.2909685,182.27075,58.200636)"
             clip-path="url(#clipPath49-0)" /></g></g></mask><mask
       maskUnits="userSpaceOnUse"
       id="mask13"><g
         id="g15"
         transform="matrix(3.4495388,0,0,3.4367982,-719.94378,-159.43384)"><g
           id="g14"><path
             id="path13"
             d="m -176.5,-251 h 353 v 502 h -353 z"
             style="fill:#ffffff;fill-opacity:1;fill-rule:nonzero;stroke:none"
             transform="matrix(0.28989383,0,0,0.2909685,182.27075,58.200636)"
             clip-path="url(#clipPath49-0)" /></g></g></mask><mask
       maskUnits="userSpaceOnUse"
       id="mask15"><g
         id="g17"
         transform="matrix(3.4495388,0,0,3.4367982,-702.87736,-159.43384)"><g
           id="g16"><path
             id="path15"
             d="m -176.5,-251 h 353 v 502 h -353 z"
             style="fill:#ffffff;fill-opacity:1;fill-rule:nonzero;stroke:none"
             transform="matrix(0.28989383,0,0,0.2909685,182.27075,58.200636)"
             clip-path="url(#clipPath49-0)" /></g></g></mask><mask
       maskUnits="userSpaceOnUse"
       id="mask17"><g
         id="g19"
         transform="matrix(3.4495388,0,0,3.4367982,-692.11956,-159.43384)"><g
           id="g18"><path
             id="path17"
             d="m -176.5,-251 h 353 v 502 h -353 z"
             style="fill:#ffffff;fill-opacity:1;fill-rule:nonzero;stroke:none"
             transform="matrix(0.28989383,0,0,0.2909685,182.27075,58.200636)"
             clip-path="url(#clipPath49-0)" /></g></g></mask><mask
       maskUnits="userSpaceOnUse"
       id="mask19"><g
         id="g21"
         transform="matrix(3.4495388,0,0,3.4367982,-682.05901,-159.43384)"><g
           id="g20"><path
             id="path19"
             d="m -176.5,-251 h 353 v 502 h -353 z"
             style="fill:#ffffff;fill-opacity:1;fill-rule:nonzero;stroke:none"
             transform="matrix(0.28989383,0,0,0.2909685,182.27075,58.200636)"
             clip-path="url(#clipPath49-0)" /></g></g></mask><mask
       maskUnits="userSpaceOnUse"
       id="mask21"><g
         id="g23"
         transform="matrix(3.4495388,0,0,3.4367982,-665.77288,-159.43384)"><g
           id="g22"><path
             id="path21"
             d="m -176.5,-251 h 353 v 502 h -353 z"
             style="fill:#ffffff;fill-opacity:1;fill-rule:nonzero;stroke:none"
             transform="matrix(0.28989383,0,0,0.2909685,182.27075,58.200636)"
             clip-path="url(#clipPath49-0)" /></g></g></mask><mask
       maskUnits="userSpaceOnUse"
       id="mask23"><g
         id="g25"
         transform="matrix(3.4495388,0,0,3.4367982,-657.97016,-159.43384)"><g
           id="g24"><path
             id="path23"
             d="m -176.5,-251 h 353 v 502 h -353 z"
             style="fill:#ffffff;fill-opacity:1;fill-rule:nonzero;stroke:none"
             transform="matrix(0.28989383,0,0,0.2909685,182.27075,58.200636)"
             clip-path="url(#clipPath49-0)" /></g></g></mask><mask
       maskUnits="userSpaceOnUse"
       id="mask25"><g
         id="g27"
         transform="matrix(3.4495388,0,0,3.4367982,-639.12737,-159.43384)"><g
           id="g26"><path
             id="path25"
             d="m -176.5,-251 h 353 v 502 h -353 z"
             style="fill:#ffffff;fill-opacity:1;fill-rule:nonzero;stroke:none"
             transform="matrix(0.28989383,0,0,0.2909685,182.27075,58.200636)"
             clip-path="url(#clipPath49-0)" /></g></g></mask><mask
       maskUnits="userSpaceOnUse"
       id="mask27"><g
         id="g29"
         transform="matrix(3.4495388,0,0,3.4367982,-631.32465,-159.43384)"><g
           id="g28"><path
             id="path27"
             d="m -176.5,-251 h 353 v 502 h -353 z"
             style="fill:#ffffff;fill-opacity:1;fill-rule:nonzero;stroke:none"
             transform="matrix(0.28989383,0,0,0.2909685,182.27075,58.200636)"
             clip-path="url(#clipPath49-0)" /></g></g></mask><mask
       maskUnits="userSpaceOnUse"
       id="mask29"><g
         id="g31"
         transform="matrix(3.4495388,0,0,3.4367982,-620.96527,-159.43384)"><g
           id="g30"><path
             id="path29"
             d="m -176.5,-251 h 353 v 502 h -353 z"
             style="fill:#ffffff;fill-opacity:1;fill-rule:nonzero;stroke:none"
             transform="matrix(0.28989383,0,0,0.2909685,182.27075,58.200636)"
             clip-path="url(#clipPath49-0)" /></g></g></mask><mask
       maskUnits="userSpaceOnUse"
       id="mask31"><g
         id="g33"
         transform="matrix(3.4495388,0,0,3.4367982,-605.02774,-159.43384)"><g
           id="g32"><path
             id="path31"
             d="m -176.5,-251 h 353 v 502 h -353 z"
             style="fill:#ffffff;fill-opacity:1;fill-rule:nonzero;stroke:none"
             transform="matrix(0.28989383,0,0,0.2909685,182.27075,58.200636)"
             clip-path="url(#clipPath49-0)" /></g></g></mask><mask
       maskUnits="userSpaceOnUse"
       id="mask33"><g
         id="g35"
         transform="matrix(3.4495388,0,0,3.4367982,-588.55899,-159.43384)"><g
           id="g34"><path
             id="path33"
             d="m -176.5,-251 h 353 v 502 h -353 z"
             style="fill:#ffffff;fill-opacity:1;fill-rule:nonzero;stroke:none"
             transform="matrix(0.28989383,0,0,0.2909685,182.27075,58.200636)"
             clip-path="url(#clipPath49-0)" /></g></g></mask><mask
       maskUnits="userSpaceOnUse"
       id="mask35"><g
         id="g37"
         transform="matrix(3.4495388,0,0,3.4367982,-580.75627,-159.43384)"><g
           id="g36"><path
             id="path35"
             d="m -176.5,-251 h 353 v 502 h -353 z"
             style="fill:#ffffff;fill-opacity:1;fill-rule:nonzero;stroke:none"
             transform="matrix(0.28989383,0,0,0.2909685,182.27075,58.200636)"
             clip-path="url(#clipPath49-0)" /></g></g></mask><mask
       maskUnits="userSpaceOnUse"
       id="mask37"><g
         id="g39"
         transform="matrix(3.4495388,0,0,3.4367982,-564.47014,-159.43384)"><g
           id="g38"><path
             id="path37"
             d="m -176.5,-251 h 353 v 502 h -353 z"
             style="fill:#ffffff;fill-opacity:1;fill-rule:nonzero;stroke:none"
             transform="matrix(0.28989383,0,0,0.2909685,182.27075,58.200636)"
             clip-path="url(#clipPath49-0)" /></g></g></mask><mask
       maskUnits="userSpaceOnUse"
       id="mask39"><g
         id="g41"
         transform="matrix(3.4495388,0,0,3.4367982,-554.40959,-159.43384)"><g
           id="g40"><path
             id="path39"
             d="m -176.5,-251 h 353 v 502 h -353 z"
             style="fill:#ffffff;fill-opacity:1;fill-rule:nonzero;stroke:none"
             transform="matrix(0.28989383,0,0,0.2909685,182.27075,58.200636)"
             clip-path="url(#clipPath49-0)" /></g></g></mask><mask
       maskUnits="userSpaceOnUse"
       id="mask41"><g
         id="g43"
         transform="matrix(3.4495388,0,0,3.4367982,-537.94084,-159.43384)"><g
           id="g42"><path
             id="path41"
             d="m -176.5,-251 h 353 v 502 h -353 z"
             style="fill:#ffffff;fill-opacity:1;fill-rule:nonzero;stroke:none"
             transform="matrix(0.28989383,0,0,0.2909685,182.27075,58.200636)"
             clip-path="url(#clipPath49-0)" /></g></g></mask><mask
       maskUnits="userSpaceOnUse"
       id="mask43"><g
         id="g45"
         transform="matrix(3.4495388,0,0,3.4367982,-520.87445,-159.43384)"><g
           id="g44"><path
             id="path43"
             d="m -176.5,-251 h 353 v 502 h -353 z"
             style="fill:#ffffff;fill-opacity:1;fill-rule:nonzero;stroke:none"
             transform="matrix(0.28989383,0,0,0.2909685,182.27075,58.200636)"
             clip-path="url(#clipPath49-0)" /></g></g></mask><mask
       maskUnits="userSpaceOnUse"
       id="mask45"><g
         id="g47"
         transform="matrix(3.4495388,0,0,3.4367982,-501.60005,-159.43384)"><g
           id="g46"><path
             id="path45"
             d="m -176.5,-251 h 353 v 502 h -353 z"
             style="fill:#ffffff;fill-opacity:1;fill-rule:nonzero;stroke:none"
             transform="matrix(0.28989383,0,0,0.2909685,182.27075,58.200636)"
             clip-path="url(#clipPath49-0)" /></g></g></mask><clipPath
       clipPathUnits="userSpaceOnUse"
       id="clipPath47"><path
         d="M -277.55309,-209.91002 H 74.446949 v 500.9999 H -277.55309 Z"
         id="path47"
         style="stroke-width:0.44267" /></clipPath><clipPath
       clipPathUnits="userSpaceOnUse"
       id="clipPath48"><path
         d="M -267.19375,-209.91002 H 84.806293 v 500.9999 H -267.19375 Z"
         id="path48"
         style="stroke-width:0.44267" /></clipPath><clipPath
       clipPathUnits="userSpaceOnUse"
       id="clipPath49"><path
         d="m -250.12733,-209.91002 h 352.00004 v 500.9999 h -352.00004 z"
         id="path49"
         style="stroke-width:0.44267" /></clipPath><clipPath
       clipPathUnits="userSpaceOnUse"
       id="clipPath50"><path
         d="m -239.36953,-209.91002 h 352.00004 v 500.9999 h -352.00004 z"
         id="path50"
         style="stroke-width:0.44267" /></clipPath><clipPath
       clipPathUnits="userSpaceOnUse"
       id="clipPath51"><path
         d="m -229.30898,-209.91002 h 352.00004 v 500.9999 h -352.00004 z"
         id="path51"
         style="stroke-width:0.44267" /></clipPath><clipPath
       clipPathUnits="userSpaceOnUse"
       id="clipPath52"><path
         d="m -213.02285,-209.91002 h 352.00004 v 500.9999 h -352.00004 z"
         id="path52"
         style="stroke-width:0.44267" /></clipPath><clipPath
       clipPathUnits="userSpaceOnUse"
       id="clipPath53"><path
         d="m -205.22013,-209.91002 h 352.00004 v 500.9999 h -352.00004 z"
         id="path53"
         style="stroke-width:0.44267" /></clipPath><clipPath
       clipPathUnits="userSpaceOnUse"
       id="clipPath54"><path
         d="m -186.37733,-209.91002 h 352.00004 v 500.9999 h -352.00004 z"
         id="path54"
         style="stroke-width:0.44267" /></clipPath><clipPath
       clipPathUnits="userSpaceOnUse"
       id="clipPath55"><path
         d="m -168.21524,-209.91002 h 352.00005 v 500.9999 h -352.00005 z"
         id="path55"
         style="stroke-width:0.44267" /></clipPath><clipPath
       clipPathUnits="userSpaceOnUse"
       id="clipPath56"><path
         d="m -152.27771,-209.91002 h 352.00004 v 500.9999 h -352.00004 z"
         id="path56"
         style="stroke-width:0.44267" /></clipPath><clipPath
       clipPathUnits="userSpaceOnUse"
       id="clipPath57"><path
         d="m -135.80896,-209.91002 h 352.00004 v 500.9999 h -352.00004 z"
         id="path57"
         style="stroke-width:0.44267" /></clipPath><clipPath
       clipPathUnits="userSpaceOnUse"
       id="clipPath58"><path
         d="M -128.00624,-209.91002 H 223.9938 v 500.9999 h -352.00004 z"
         id="path58"
         style="stroke-width:0.44267" /></clipPath><clipPath
       clipPathUnits="userSpaceOnUse"
       id="clipPath59"><path
         d="m -111.7201,-209.91002 h 352.00004 v 500.9999 H -111.7201 Z"
         id="path59"
         style="stroke-width:0.44267" /></clipPath><clipPath
       clipPathUnits="userSpaceOnUse"
       id="clipPath60"><path
         d="m -101.65956,-209.91002 h 352.00004 v 500.9999 h -352.00004 z"
         id="path60"
         style="stroke-width:0.44267" /></clipPath><clipPath
       clipPathUnits="userSpaceOnUse"
       id="clipPath61"><path
         d="M -85.190805,-209.91002 H 266.80924 v 500.9999 H -85.190805 Z"
         id="path61"
         style="stroke-width:0.44267" /></clipPath><clipPath
       clipPathUnits="userSpaceOnUse"
       id="clipPath62"><path
         d="M -68.124419,-209.91002 H 283.87562 v 500.9999 H -68.124419 Z"
         id="path62"
         style="stroke-width:0.44267" /></clipPath><clipPath
       clipPathUnits="userSpaceOnUse"
       id="clipPath63"><path
         d="M -48.850018,-209.91002 H 303.15002 v 500.9999 H -48.850018 Z"
         id="path63"
         style="stroke-width:0.44267" /></clipPath><rect
       x="-8.6937704"
       y="-204.3036"
       width="211.25862"
       height="104.32524"
       id="rect64-4" /></defs><g
     inkscape:label="Layer 1"
     inkscape:groupmode="layer"
     id="layer1"><path
       d=""
       style="fill:#f7941d;fill-opacity:1;fill-rule:nonzero;stroke:none"
       aria-label=" "
       transform="matrix(0.28989383,0,0,0.2909685,183.01712,46.390224)"
       clip-path="url(#clipPath59-7)"
       id="path77"
       mask="url(#mask27)" /><rect
       style="fill:#000000;stroke:#000000;stroke-width:0.513418;stroke-linejoin:round"
       id="rect2"
       width="90.269768"
       height="90.409187"
       x="0.17958301"
       y="0.40960571" /><g
       id="g5"
       transform="matrix(0.23541499,0,0,0.23541499,20.885674,-23.307292)"><g
         id="g4"><path
           style="fill:#ff8900;fill-opacity:1;fill-rule:evenodd;stroke:none;stroke-width:0.86393px;stroke-linecap:butt;stroke-linejoin:miter;stroke-opacity:1"
           d="M 48.667697,249.17039 H 160.50906 V 141.03791 Z"
           id="path3" /><path
           style="fill:#e43206;fill-opacity:1;fill-rule:evenodd;stroke:none;stroke-width:0.86393px;stroke-linecap:butt;stroke-linejoin:miter;stroke-opacity:1"
           d="M 160.34192,141.18811 H 48.500556 V 249.3206 Z"
           id="path3-9" /></g><path
         style="fill:#ffffff;fill-opacity:1;stroke:#000000;stroke-width:1.328;stroke-dasharray:none;stroke-opacity:1"
         d="m 57.685115,209.6753 -0.105658,-0.2771 0.05736,-17.0697 0.05735,-17.0697 5.935289,-0.0591 5.93529,-0.0591 1.435738,0.33298 1.435713,0.33296 1.358134,0.68557 1.358161,0.68562 1.082306,1.01237 1.082308,1.01238 0.679609,1.38045 0.679585,1.38045 0.241286,1.55954 0.241288,1.55953 -0.242579,1.46351 -0.242579,1.46349 -0.554058,1.21023 -0.554083,1.21026 -1.068512,1.14389 -1.068486,1.1439 -1.163837,0.65784 -1.163864,0.6578 0.157843,0.25601 0.157846,0.25602 5.396731,7.38559 5.396732,7.3856 0.121939,0.31793 0.121939,0.31794 -3.071896,-0.005 -3.071871,-0.005 -5.623708,-7.5398 -5.623708,-7.53978 -2.246093,0.0628 -2.246068,0.0628 -0.05838,7.48186 -0.05838,7.48184 h -2.331681 -2.331707 z m 12.592193,-20.02336 1.023923,-0.34889 0.878272,-0.95282 0.878297,-0.95283 0.250071,-1.20489 0.250072,-1.20489 -0.253688,-1.18364 -0.253946,-1.18362 -0.874578,-0.94879 -0.874578,-0.94881 -1.023922,-0.34887 -1.023897,-0.34889 h -3.396628 -3.396627 v 4.98791 4.98789 h 3.396627 3.396628 z m 16.665564,19.9125 0.144927,-0.38794 6.899768,-17.01427 6.899793,-17.01429 h 2.37697 2.37697 l 0.1116,0.27711 0.11161,0.2771 6.80832,16.73718 6.80829,16.73717 0.11264,0.38794 0.11263,0.38797 h -2.64328 -2.64328 l -1.65001,-4.1001 -1.65,-4.10011 -7.85686,0.0542 -7.856859,0.0542 -1.651168,4.04573 -1.651166,4.04576 h -2.652898 -2.652925 z m 22.071858,-12.85768 6.2e-4,-0.16637 -2.82731,-7.25973 -2.8273,-7.25974 -0.11083,0.005 -0.11083,0.005 -2.71224,7.03286 -2.712211,7.03292 -0.137953,0.38794 -0.137952,0.38795 h 5.787496 5.78752 z m 11.89623,13.09787 -0.14777,-0.14777 v -17.25445 -17.25444 h 2.43853 2.43853 v 17.40224 17.40223 h -2.29074 -2.29073 z m 12.04485,-17.25445 v -17.40224 h 2.43852 2.43853 v 14.96372 14.96367 h 8.20235 8.20231 v 2.43856 2.43852 h -10.64084 -10.64087 z"
         id="path1-2" /></g><g
       id="text64-8"
       style="font-size:21.3333px;font-family:Roboto;-inkscape-font-specification:Roboto;text-align:center;white-space:pre;fill:#ffffff;stroke-width:0.583;stroke-linejoin:round"
       transform="matrix(0.27725182,0,0,0.28459934,18.642591,109.95884)"
       aria-label="efficient low friction transport and storage for your container workloads"><path
         d="m 13.80547,-186.65507 q -0.552083,0.83333 -1.562498,1.51041 -1.010415,0.66667 -2.6770788,0.66667 -2.3541629,0 -3.7708274,-1.53125 -1.4062477,-1.53125 -1.4062477,-3.91666 v -0.4375 q 0,-1.84375 0.6979155,-3.13541 0.7083322,-1.30208 1.8333305,-1.97917 1.1249982,-0.6875 2.3958295,-0.6875 2.4166624,0 3.5208274,1.58334 1.114582,1.57291 1.114582,3.93749 v 0.86458 H 6.326315 q 0.041667,1.55208 0.9166652,2.64583 0.8854153,1.08333 2.4270795,1.08333 1.0208313,0 1.7291643,-0.41666 0.708332,-0.41667 1.239581,-1.11459 z m -4.4895764,-7.92707 q -1.1458315,0 -1.9374969,0.83333 -0.7916655,0.83333 -0.9895818,2.39583 h 5.6354081 v -0.14584 q -0.07292,-1.12499 -0.656249,-2.10416 -0.572916,-0.97916 -2.0520804,-0.97916 z m 13.9270614,9.89581 v -9.79165 h -4.16666 v 9.79165 h -1.927081 v -9.79165 h -1.781247 v -1.47916 h 1.781247 v -1.1875 q 0,-1.82291 0.979165,-2.79166 0.989582,-0.96875 2.718746,-0.96875 0.635416,0 1.333331,0.16667 l -0.104166,1.57291 q -0.437499,-0.0937 -1.041665,-0.0937 -1.95833,0 -1.95833,2.11458 v 1.1875 h 4.16666 v -0.97917 q 0,-1.91666 1.093748,-2.93749 1.104165,-1.03125 3.020829,-1.03125 0.760415,0 1.468747,0.1875 0.718749,0.17708 1.489581,0.44791 l -0.333333,1.625 q -0.468749,-0.1875 -1.104165,-0.35416 -0.635415,-0.17709 -1.374997,-0.17709 -1.239582,0 -1.791664,0.5625 -0.541666,0.55208 -0.541666,1.67708 v 0.97917 h 2.30208 v 1.47916 h -2.30208 v 9.79165 z m 8.02082,-11.27081 v 11.27081 h -1.92708 v -11.27081 z m 7.656238,9.89582 q 1.031248,0 1.802081,-0.61459 0.781248,-0.61458 0.854165,-1.57291 h 1.83333 q -0.07292,1.51041 -1.385414,2.64583 -1.312498,1.125 -3.104162,1.125 -2.541663,0 -3.781244,-1.67708 -1.229165,-1.67709 -1.229165,-3.94792 v -0.43749 q 0,-2.27083 1.229165,-3.94791 1.239581,-1.67709 3.781244,-1.67709 1.979164,0 3.197912,1.17709 1.218748,1.16666 1.291664,2.90624 h -1.83333 q -0.07292,-1.04166 -0.791666,-1.77083 -0.708332,-0.72916 -1.86458,-0.72916 -1.187498,0 -1.86458,0.60416 -0.666666,0.60417 -0.947915,1.53125 -0.270833,0.92708 -0.270833,1.90625 v 0.43749 q 0,0.98959 0.270833,1.91667 0.270832,0.92708 0.937498,1.53125 0.677082,0.59375 1.874997,0.59375 z m 6.666656,-12.8854 q 0,-0.46875 0.28125,-0.79167 0.291666,-0.32291 0.854165,-0.32291 0.552082,0 0.843749,0.32291 0.302082,0.32292 0.302082,0.79167 0,0.44791 -0.302082,0.77083 -0.291667,0.3125 -0.843749,0.3125 -0.562499,0 -0.854165,-0.3125 -0.28125,-0.32292 -0.28125,-0.77083 z m 2.08333,2.98958 v 11.27081 h -1.937497 v -11.27081 z m 12.010398,9.30207 q -0.552082,0.83333 -1.562497,1.51041 -1.010415,0.66667 -2.677079,0.66667 -2.354163,0 -3.770828,-1.53125 -1.406247,-1.53125 -1.406247,-3.91666 v -0.4375 q 0,-1.84375 0.697915,-3.13541 0.708332,-1.30208 1.833331,-1.97917 1.124998,-0.6875 2.395829,-0.6875 2.416663,0 3.520828,1.58334 1.114581,1.57291 1.114581,3.93749 v 0.86458 h -7.624987 q 0.04167,1.55208 0.916665,2.64583 0.885415,1.08333 2.427079,1.08333 1.020832,0 1.729164,-0.41666 0.708332,-0.41667 1.239582,-1.11459 z m -4.489576,-7.92707 q -1.145831,0 -1.937497,0.83333 -0.791665,0.83333 -0.989582,2.39583 h 5.635408 v -0.14584 q -0.07292,-1.12499 -0.656249,-2.10416 -0.572916,-0.97916 -2.05208,-0.97916 z m 11.562481,0.0417 q -0.927082,0 -1.635414,0.5 -0.708333,0.5 -1.114582,1.30208 v 8.05207 h -1.92708 v -11.27081 h 1.822913 l 0.0625,1.40625 q 1.281248,-1.61459 3.364578,-1.61459 1.666664,0 2.635413,0.9375 0.979165,0.9375 0.979165,3.15625 v 7.3854 h -1.937497 v -7.40624 q 0,-1.32291 -0.583332,-1.88541 -0.572916,-0.5625 -1.666664,-0.5625 z m 11.874984,9.85415 q -0.229166,0.0729 -0.604165,0.13542 -0.364583,0.0729 -0.885416,0.0729 -1.072915,0 -1.83333,-0.65625 -0.760416,-0.65625 -0.760416,-2.35417 v -6.98957 h -2.062496 v -1.47916 h 2.062496 v -2.73958 h 1.927081 v 2.73958 h 2.104163 v 1.47916 H 76.47204 v 6.99999 q 0,0.86458 0.374999,1.10417 0.374999,0.23958 0.864582,0.23958 0.239583,0 0.499999,-0.0417 0.270833,-0.0521 0.40625,-0.0833 z m 9.593734,-15.99997 v 15.99997 h -1.937497 v -15.99997 z m 2.58333,10.48957 v -0.23959 q 0,-2.44791 1.374998,-4.08332 1.374998,-1.64584 3.739577,-1.64584 2.385413,0 3.760411,1.64584 1.385414,1.63541 1.385414,4.08332 v 0.23959 q 0,2.44791 -1.385414,4.08332 -1.374998,1.63542 -3.739577,1.63542 -2.374997,0 -3.760411,-1.63542 -1.374998,-1.63541 -1.374998,-4.08332 z m 1.92708,-0.23959 v 0.23959 q 0,1.67708 0.791666,2.90624 0.802082,1.22917 2.416663,1.22917 1.58333,0 2.385412,-1.22917 0.802082,-1.22916 0.802082,-2.90624 v -0.23959 q 0,-1.65625 -0.802082,-2.89583 -0.802082,-1.24999 -2.406246,-1.24999 -1.593747,0 -2.395829,1.24999 -0.791666,1.23958 -0.791666,2.89583 z m 24.81246,-5.52082 -3.27083,11.27081 h -1.56249 l -2.73958,-8.53123 -2.66666,8.53123 h -1.57292 l -3.27083,-11.27081 h 1.92708 l 2.21875,8.41665 2.625,-8.41665 h 1.55208 l 2.66666,8.59373 2.17708,-8.59373 z m 12.53123,1.47916 h -2.39583 v 9.79165 h -1.92708 v -9.79165 h -1.78124 v -1.47916 h 1.78124 v -1.1875 q 0,-1.82291 0.97917,-2.79166 0.98958,-0.96875 2.71874,-0.96875 0.63542,0 1.33334,0.16667 l -0.10417,1.57291 q -0.4375,-0.0937 -1.04167,-0.0937 -1.95833,0 -1.95833,2.11458 v 1.1875 h 2.39583 z m 6.64582,0.16667 q -0.98958,0 -1.625,0.44791 -0.63541,0.4375 -0.94791,1.17709 v 7.99998 h -1.92708 v -11.27081 h 1.87499 l 0.0417,1.29166 q 0.42708,-0.6875 1.08333,-1.09375 0.66667,-0.40625 1.59375,-0.40625 0.54167,0 0.85417,0.14584 l -0.0104,1.79166 q -0.42708,-0.0833 -0.9375,-0.0833 z m 2.73958,-4.63541 q 0,-0.46875 0.28125,-0.79167 0.29167,-0.32291 0.85417,-0.32291 0.55208,0 0.84374,0.32291 0.30209,0.32292 0.30209,0.79167 0,0.44791 -0.30209,0.77083 -0.29166,0.3125 -0.84374,0.3125 -0.5625,0 -0.85417,-0.3125 -0.28125,-0.32292 -0.28125,-0.77083 z m 2.08333,2.98958 v 11.27081 h -1.9375 v -11.27081 z m 7.60416,9.89582 q 1.03125,0 1.80208,-0.61459 0.78125,-0.61458 0.85417,-1.57291 h 1.83333 q -0.0729,1.51041 -1.38542,2.64583 -1.31249,1.125 -3.10416,1.125 -2.54166,0 -3.78124,-1.67708 -1.22917,-1.67709 -1.22917,-3.94792 v -0.43749 q 0,-2.27083 1.22917,-3.94791 1.23958,-1.67709 3.78124,-1.67709 1.97917,0 3.19791,1.17709 1.21875,1.16666 1.29167,2.90624 h -1.83333 q -0.0729,-1.04166 -0.79167,-1.77083 -0.70833,-0.72916 -1.86458,-0.72916 -1.18749,0 -1.86458,0.60416 -0.66666,0.60417 -0.94791,1.53125 -0.27084,0.92708 -0.27084,1.90625 v 0.43749 q 0,0.98959 0.27084,1.91667 0.27083,0.92708 0.9375,1.53125 0.67708,0.59375 1.87499,0.59375 z m 11.42706,1.37499 q -0.22917,0.0729 -0.60417,0.13542 -0.36458,0.0729 -0.88541,0.0729 -1.07292,0 -1.83333,-0.65625 -0.76042,-0.65625 -0.76042,-2.35417 v -6.98957 h -2.06249 v -1.47916 h 2.06249 v -2.73958 h 1.92708 v 2.73958 h 2.10417 v 1.47916 h -2.10417 v 6.99999 q 0,0.86458 0.375,1.10417 0.375,0.23958 0.86459,0.23958 0.23958,0 0.49999,-0.0417 0.27084,-0.0521 0.40625,-0.0833 z m 2.21875,-14.26039 q 0,-0.46875 0.28125,-0.79167 0.29166,-0.32291 0.85416,-0.32291 0.55209,0 0.84375,0.32291 0.30208,0.32292 0.30208,0.79167 0,0.44791 -0.30208,0.77083 -0.29166,0.3125 -0.84375,0.3125 -0.5625,0 -0.85416,-0.3125 -0.28125,-0.32292 -0.28125,-0.77083 z m 2.08333,2.98958 v 11.27081 h -1.9375 v -11.27081 z m 2.58332,5.76041 v -0.23959 q 0,-2.44791 1.375,-4.08332 1.375,-1.64584 3.73958,-1.64584 2.38541,0 3.76041,1.64584 1.38541,1.63541 1.38541,4.08332 v 0.23959 q 0,2.44791 -1.38541,4.08332 -1.375,1.63542 -3.73958,1.63542 -2.375,0 -3.76041,-1.63542 -1.375,-1.63541 -1.375,-4.08332 z m 1.92708,-0.23959 v 0.23959 q 0,1.67708 0.79167,2.90624 0.80208,1.22917 2.41666,1.22917 1.58333,0 2.38541,-1.22917 0.80208,-1.22916 0.80208,-2.90624 v -0.23959 q 0,-1.65625 -0.80208,-2.89583 -0.80208,-1.24999 -2.40624,-1.24999 -1.59375,0 -2.39583,1.24999 -0.79167,1.23958 -0.79167,2.89583 z m 15.42707,-4.10416 q -0.92708,0 -1.63542,0.5 -0.70833,0.5 -1.11458,1.30208 v 8.05207 h -1.92708 v -11.27081 h 1.82292 l 0.0625,1.40625 q 1.28124,-1.61459 3.36457,-1.61459 1.66667,0 2.63542,0.9375 0.97916,0.9375 0.97916,3.15625 v 7.3854 h -1.9375 v -7.40624 q 0,-1.32291 -0.58333,-1.88541 -0.57291,-0.5625 -1.66666,-0.5625 z"
         id="path209" /><path
         d="m 0.81590703,-158.0197 q -0.2291663,0.0729 -0.60416571,0.13542 -0.36458276,0.0729 -0.88541527,0.0729 -1.07291495,0 -1.83333045,-0.65625 -0.7604155,-0.65625 -0.7604155,-2.35416 v -6.98957 h -2.0624967 v -1.47917 h 2.0624967 v -2.73958 h 1.9270803 v 2.73958 h 2.10416338 v 1.47917 H -1.3403396 v 6.99999 q 0,0.86458 0.37499945,1.10416 0.3749994,0.23958 0.86458196,0.23958 0.23958296,0 0.49999921,-0.0417 0.27083291,-0.0521 0.40624936,-0.0833 z m 6.70832267,-9.62499 q -0.9895818,0 -1.6249975,0.44792 -0.6354156,0.4375 -0.9479151,1.17708 v 7.99999 H 3.0242368 v -11.27082 h 1.874997 l 0.041667,1.29167 q 0.4270827,-0.6875 1.0833316,-1.09375 0.6666656,-0.40625 1.5937475,-0.40625 0.5416658,0 0.8541653,0.14583 l -0.010417,1.79167 q -0.4270827,-0.0833 -0.9374985,-0.0833 z m 9.2708193,9.62499 q -0.1875,-0.40625 -0.270833,-1.1875 -0.541666,0.57292 -1.354165,0.98958 -0.812499,0.40625 -1.854164,0.40625 -1.729163,0 -2.770829,-0.96875 -1.0416645,-0.96874 -1.0416645,-2.37499 0,-1.8125 1.3749975,-2.75 1.374998,-0.94791 3.697911,-0.94791 h 1.906247 v -0.89584 q 0,-0.99999 -0.604166,-1.59374 -0.593749,-0.60417 -1.77083,-0.60417 -1.093748,0 -1.770831,0.54167 -0.666665,0.53125 -0.666665,1.23958 H 9.7429764 q 0,-1.20833 1.2187486,-2.27083 1.218748,-1.0625 3.260411,-1.0625 1.83333,0 3.010412,0.9375 1.177081,0.9375 1.177081,2.83333 v 5.24999 q 0,0.5625 0.09375,1.19791 0.104167,0.63542 0.302083,1.09375 v 0.16667 z m -3.197912,-1.47917 q 1.041665,0 1.80208,-0.52083 0.770833,-0.52083 1.083332,-1.15625 v -2.32291 h -1.593747 q -3.447912,0 -3.447912,2.08333 0,0.80208 0.541666,1.36458 0.541666,0.55208 1.614581,0.55208 z m 12.520812,-8.37498 q -0.927082,0 -1.635414,0.5 -0.708332,0.5 -1.114581,1.30208 v 8.05207 h -1.927081 v -11.27082 h 1.822914 l 0.0625,1.40625 q 1.281248,-1.61458 3.364578,-1.61458 1.666664,0 2.635412,0.9375 0.979166,0.9375 0.979166,3.15624 v 7.38541 h -1.937497 v -7.40624 q 0,-1.32291 -0.583333,-1.88541 -0.572916,-0.5625 -1.666664,-0.5625 z m 13.666647,6.86457 q 0,-0.625 -0.46875,-1.11458 -0.458332,-0.5 -2.124996,-0.83333 -1.885414,-0.39584 -2.979162,-1.125 -1.083332,-0.72917 -1.083332,-2.125 0,-1.33333 1.135415,-2.31249 1.145832,-0.97917 3.041662,-0.97917 2.02083,0 3.156245,1.03125 1.135415,1.03125 1.135415,2.48958 h -1.92708 q 0,-0.69792 -0.614583,-1.3125 -0.614582,-0.625 -1.749997,-0.625 -1.197915,0 -1.718747,0.52083 -0.520833,0.52084 -0.520833,1.13542 0,0.625 0.499999,1.01041 0.5,0.375 2.093747,0.72917 2.072913,0.47917 3.062495,1.23958 0.989582,0.76042 0.989582,2.125 0,1.48958 -1.197915,2.41666 -1.187498,0.92708 -3.156245,0.92708 -2.23958,0 -3.427078,-1.14583 -1.187498,-1.14583 -1.187498,-2.54166 h 1.937497 q 0.0625,1.19791 0.916665,1.65625 0.864582,0.44791 1.760414,0.44791 1.177082,0 1.802081,-0.45833 0.624999,-0.45833 0.624999,-1.15625 z m 9.593734,3.19791 q -2.031247,0 -3.218745,-1.30208 v 5.42708 h -1.937497 v -15.60415 h 1.770831 l 0.09375,1.23958 q 1.187498,-1.44791 3.260411,-1.44791 2.135413,0 3.270828,1.58333 1.135415,1.58333 1.135415,4.16666 v 0.21875 q 0,2.46875 -1.145831,4.09374 -1.135415,1.625 -3.229162,1.625 z m -0.593749,-10.06248 q -0.979165,0 -1.614581,0.44791 -0.635415,0.4375 -1.010415,1.10417 v 5.39582 q 0.385416,0.66667 1.010415,1.10417 0.635416,0.42708 1.635414,0.42708 1.562498,0 2.281247,-1.22916 0.729165,-1.22917 0.729165,-2.90625 v -0.21875 q 0,-1.67708 -0.729165,-2.89583 -0.718749,-1.22916 -2.30208,-1.22916 z m 6.916653,4.34374 v -0.23958 q 0,-2.44791 1.374998,-4.08333 1.374998,-1.64583 3.739577,-1.64583 2.385413,0 3.760411,1.64583 1.385415,1.63542 1.385415,4.08333 v 0.23958 q 0,2.44791 -1.385415,4.08333 -1.374998,1.63541 -3.739577,1.63541 -2.374997,0 -3.760411,-1.63541 -1.374998,-1.63542 -1.374998,-4.08333 z m 1.92708,-0.23958 v 0.23958 q 0,1.67708 0.791666,2.90625 0.802082,1.22916 2.416663,1.22916 1.583331,0 2.385413,-1.22916 0.802082,-1.22917 0.802082,-2.90625 v -0.23958 q 0,-1.65625 -0.802082,-2.89583 -0.802082,-1.25 -2.406247,-1.25 -1.593747,0 -2.395829,1.25 -0.791666,1.23958 -0.791666,2.89583 z m 15.249982,-3.875 q -0.989582,0 -1.624998,0.44792 -0.635416,0.4375 -0.947915,1.17708 v 7.99999 h -1.92708 v -11.27082 H 70.2533 l 0.04167,1.29167 q 0.427083,-0.6875 1.083332,-1.09375 0.666666,-0.40625 1.593747,-0.40625 0.541666,0 0.854166,0.14583 l -0.01042,1.79167 q -0.427083,-0.0833 -0.937498,-0.0833 z m 8.020817,9.62499 q -0.229166,0.0729 -0.604166,0.13542 -0.364582,0.0729 -0.885415,0.0729 -1.072915,0 -1.83333,-0.65625 -0.760416,-0.65625 -0.760416,-2.35416 v -6.98957 H 74.75329 v -1.47917 h 2.062496 v -2.73958 h 1.927081 v 2.73958 h 2.104163 v 1.47917 h -2.104163 v 6.99999 q 0,0.86458 0.374999,1.10416 0.374999,0.23958 0.864582,0.23958 0.239583,0 0.499999,-0.0417 0.270833,-0.0521 0.40625,-0.0833 z m 14.45831,0 q -0.1875,-0.40625 -0.270833,-1.1875 -0.541666,0.57292 -1.354165,0.98958 -0.812498,0.40625 -1.854163,0.40625 -1.729164,0 -2.770829,-0.96875 -1.041665,-0.96874 -1.041665,-2.37499 0,-1.8125 1.374997,-2.75 1.374998,-0.94791 3.697911,-0.94791 h 1.906247 v -0.89584 q 0,-0.99999 -0.604165,-1.59374 -0.59375,-0.60417 -1.770831,-0.60417 -1.093748,0 -1.770831,0.54167 -0.666665,0.53125 -0.666665,1.23958 h -1.92708 q 0,-1.20833 1.218748,-2.27083 1.218748,-1.0625 3.260411,-1.0625 1.833331,0 3.010412,0.9375 1.177082,0.9375 1.177082,2.83333 v 5.24999 q 0,0.5625 0.09375,1.19791 0.104167,0.63542 0.302083,1.09375 v 0.16667 z m -3.197912,-1.47917 q 1.041665,0 1.802081,-0.52083 0.770832,-0.52083 1.083331,-1.15625 v -2.32291 h -1.593747 q -3.447911,0 -3.447911,2.08333 0,0.80208 0.541665,1.36458 0.541666,0.55208 1.614581,0.55208 z m 12.520819,-8.37498 q -0.92709,0 -1.63542,0.5 -0.70833,0.5 -1.11458,1.30208 v 8.05207 h -1.92708 v -11.27082 h 1.82291 l 0.0625,1.40625 q 1.28125,-1.61458 3.36458,-1.61458 1.66667,0 2.63541,0.9375 0.97917,0.9375 0.97917,3.15624 v 7.38541 h -1.9375 v -7.40624 q 0,-1.32291 -0.58333,-1.88541 -0.57292,-0.5625 -1.66666,-0.5625 z m 14.37497,9.85415 -0.0937,-1.20833 q -1.15625,1.41666 -3.21875,1.41666 -1.98958,0 -3.21874,-1.625 -1.21875,-1.62499 -1.21875,-4.09374 v -0.21875 q 0,-2.58333 1.21875,-4.16666 1.22916,-1.58333 3.23958,-1.58333 1.98958,0 3.12499,1.33333 v -5.85416 h 1.9375 v 15.99998 z m -5.81249,-5.51041 q 0,1.67708 0.70833,2.88541 0.70833,1.19792 2.27083,1.19792 1.01041,0 1.64583,-0.45833 0.63542,-0.45834 1.02083,-1.17709 v -5.18749 q -0.375,-0.69791 -1.02083,-1.14583 -0.63542,-0.45833 -1.625,-0.45833 -1.57291,0 -2.29166,1.22916 -0.70833,1.21875 -0.70833,2.89583 z m 22.42705,2.52083 q 0,-0.625 -0.46875,-1.11458 -0.45833,-0.5 -2.125,-0.83333 -1.88541,-0.39584 -2.97916,-1.125 -1.08333,-0.72917 -1.08333,-2.125 0,-1.33333 1.13541,-2.31249 1.14583,-0.97917 3.04166,-0.97917 2.02083,0 3.15625,1.03125 1.13541,1.03125 1.13541,2.48958 h -1.92708 q 0,-0.69792 -0.61458,-1.3125 -0.61458,-0.625 -1.75,-0.625 -1.19791,0 -1.71874,0.52083 -0.52084,0.52084 -0.52084,1.13542 0,0.625 0.5,1.01041 0.5,0.375 2.09375,0.72917 2.07291,0.47917 3.0625,1.23958 0.98958,0.76042 0.98958,2.125 0,1.48958 -1.19792,2.41666 -1.1875,0.92708 -3.15624,0.92708 -2.23958,0 -3.42708,-1.14583 -1.1875,-1.14583 -1.1875,-2.54166 h 1.9375 q 0.0625,1.19791 0.91666,1.65625 0.86459,0.44791 1.76042,0.44791 1.17708,0 1.80208,-0.45833 0.625,-0.45833 0.625,-1.15625 z m 9.21874,2.98958 q -0.22917,0.0729 -0.60417,0.13542 -0.36458,0.0729 -0.88541,0.0729 -1.07292,0 -1.83333,-0.65625 -0.76042,-0.65625 -0.76042,-2.35416 v -6.98957 h -2.06249 v -1.47917 h 2.06249 v -2.73958 h 1.92708 v 2.73958 h 2.10417 v 1.47917 h -2.10417 v 6.99999 q 0,0.86458 0.375,1.10416 0.375,0.23958 0.86458,0.23958 0.23959,0 0.5,-0.0417 0.27084,-0.0521 0.40625,-0.0833 z m 1.48957,-5.51041 v -0.23958 q 0,-2.44791 1.375,-4.08333 1.375,-1.64583 3.73958,-1.64583 2.38541,0 3.76041,1.64583 1.38541,1.63542 1.38541,4.08333 v 0.23958 q 0,2.44791 -1.38541,4.08333 -1.375,1.63541 -3.73958,1.63541 -2.375,0 -3.76041,-1.63541 -1.375,-1.63542 -1.375,-4.08333 z m 1.92708,-0.23958 v 0.23958 q 0,1.67708 0.79167,2.90625 0.80208,1.22916 2.41666,1.22916 1.58333,0 2.38541,-1.22916 0.80208,-1.22917 0.80208,-2.90625 v -0.23958 q 0,-1.65625 -0.80208,-2.89583 -0.80208,-1.25 -2.40624,-1.25 -1.59375,0 -2.39583,1.25 -0.79167,1.23958 -0.79167,2.89583 z m 15.24999,-3.875 q -0.98959,0 -1.625,0.44792 -0.63542,0.4375 -0.94792,1.17708 v 7.99999 h -1.92708 v -11.27082 h 1.875 l 0.0417,1.29167 q 0.42708,-0.6875 1.08333,-1.09375 0.66666,-0.40625 1.59375,-0.40625 0.54166,0 0.85416,0.14583 l -0.0104,1.79167 q -0.42708,-0.0833 -0.93749,-0.0833 z m 9.27081,9.62499 q -0.1875,-0.40625 -0.27083,-1.1875 -0.54167,0.57292 -1.35417,0.98958 -0.8125,0.40625 -1.85416,0.40625 -1.72916,0 -2.77083,-0.96875 -1.04166,-0.96874 -1.04166,-2.37499 0,-1.8125 1.37499,-2.75 1.375,-0.94791 3.69791,-0.94791 h 1.90625 v -0.89584 q 0,-0.99999 -0.60416,-1.59374 -0.59375,-0.60417 -1.77084,-0.60417 -1.09374,0 -1.77083,0.54167 -0.66666,0.53125 -0.66666,1.23958 h -1.92708 q 0,-1.20833 1.21875,-2.27083 1.21874,-1.0625 3.26041,-1.0625 1.83333,0 3.01041,0.9375 1.17708,0.9375 1.17708,2.83333 v 5.24999 q 0,0.5625 0.0937,1.19791 0.10417,0.63542 0.30208,1.09375 v 0.16667 z m -3.19791,-1.47917 q 1.04166,0 1.80208,-0.52083 0.77083,-0.52083 1.08333,-1.15625 v -2.32291 h -1.59375 q -3.44791,0 -3.44791,2.08333 0,0.80208 0.54167,1.36458 0.54166,0.55208 1.61458,0.55208 z m 16.8958,1.23959 q 0,2.23958 -1.33333,3.45832 -1.33333,1.22917 -3.4375,1.22917 -0.875,0 -2.14583,-0.42708 -1.27083,-0.42709 -2.03124,-1.53125 l 1.01041,-1.14583 q 0.70833,0.86458 1.47917,1.18749 0.77083,0.33334 1.54166,0.33334 1.36458,0 2.17708,-0.77083 0.8125,-0.76042 0.8125,-2.23958 v -0.98959 q -1.14583,1.34375 -3.15625,1.34375 -2.03124,0 -3.22916,-1.625 -1.19791,-1.62499 -1.19791,-4.09374 v -0.21875 q 0,-2.58333 1.1875,-4.16666 1.19791,-1.58333 3.26041,-1.58333 2.07291,0 3.21874,1.45833 l 0.0937,-1.25 h 1.75 z m -7.58332,-5.27083 q 0,1.67708 0.69791,2.88541 0.70834,1.19792 2.27083,1.19792 1.03125,0 1.66667,-0.46875 0.64583,-0.46875 1.02083,-1.19792 v -5.1354 q -0.36458,-0.69792 -1.01042,-1.15625 -0.64583,-0.46875 -1.65624,-0.46875 -1.57292,0 -2.28125,1.22916 -0.70833,1.21875 -0.70833,2.89583 z m 19.42706,3.54166 q -0.55208,0.83333 -1.5625,1.51042 -1.01041,0.66666 -2.67708,0.66666 -2.35416,0 -3.77083,-1.53125 -1.40624,-1.53124 -1.40624,-3.91666 v -0.4375 q 0,-1.84374 0.69791,-3.13541 0.70833,-1.30208 1.83333,-1.97916 1.125,-0.6875 2.39583,-0.6875 2.41667,0 3.52083,1.58333 1.11458,1.57292 1.11458,3.9375 v 0.86458 h -7.62499 q 0.0417,1.55208 0.91667,2.64583 0.88541,1.08333 2.42708,1.08333 1.02083,0 1.72916,-0.41667 0.70833,-0.41666 1.23958,-1.11458 z m -4.48958,-7.92707 q -1.14583,0 -1.93749,0.83333 -0.79167,0.83334 -0.98959,2.39583 h 5.63541 v -0.14583 q -0.0729,-1.125 -0.65625,-2.10416 -0.57291,-0.97917 -2.05208,-0.97917 z"
         id="path210" /><path
         d="m 19.826294,-141.14473 h -2.39583 v 9.79165 h -1.92708 v -9.79165 h -1.781247 v -1.47916 h 1.781247 v -1.1875 q 0,-1.82291 0.979165,-2.79166 0.989582,-0.96875 2.718746,-0.96875 0.635415,0 1.333331,0.16667 l -0.104167,1.57291 q -0.437499,-0.0937 -1.041665,-0.0937 -1.95833,0 -1.95833,2.11458 v 1.1875 h 2.39583 z m 1.635414,4.28125 v -0.23959 q 0,-2.44791 1.374998,-4.08332 1.374998,-1.64583 3.739577,-1.64583 2.385413,0 3.760411,1.64583 1.385414,1.63541 1.385414,4.08332 v 0.23959 q 0,2.44791 -1.385414,4.08332 -1.374998,1.63542 -3.739578,1.63542 -2.374996,0 -3.76041,-1.63542 -1.374998,-1.63541 -1.374998,-4.08332 z m 1.92708,-0.23959 v 0.23959 q 0,1.67708 0.791666,2.90624 0.802082,1.22917 2.416662,1.22917 1.583331,0 2.385413,-1.22917 0.802082,-1.22916 0.802082,-2.90624 v -0.23959 q 0,-1.65624 -0.802082,-2.89582 -0.802082,-1.25 -2.406246,-1.25 -1.593747,0 -2.395829,1.25 -0.791666,1.23958 -0.791666,2.89582 z m 15.249977,-3.87499 q -0.989582,0 -1.624997,0.44792 -0.635416,0.4375 -0.947916,1.17708 v 7.99998 h -1.92708 v -11.27081 h 1.874997 l 0.04167,1.29166 q 0.427082,-0.68749 1.083331,-1.09374 0.666666,-0.40625 1.593748,-0.40625 0.541666,0 0.854165,0.14583 l -0.01042,1.79166 q -0.427083,-0.0833 -0.937499,-0.0833 z m 11.864566,11.36457 q -0.208333,0.55208 -0.604166,1.20833 -0.395832,0.66666 -1.062498,1.13541 -0.656249,0.46875 -1.677081,0.46875 -0.239583,0 -0.593749,-0.0625 -0.343749,-0.0521 -0.489582,-0.10417 l -0.01042,-1.56249 q 0.229166,0.0417 0.520832,0.0417 0.979166,0 1.531248,-0.40625 0.552083,-0.39583 0.906249,-1.43749 l 0.416666,-1.14583 -4.020827,-11.14582 h 2.104163 l 2.822912,8.43749 2.614579,-8.43749 h 2.062497 z m 5.583325,-7.24999 v -0.23959 q 0,-2.44791 1.374998,-4.08332 1.374998,-1.64583 3.739577,-1.64583 2.385413,0 3.760411,1.64583 1.385414,1.63541 1.385414,4.08332 v 0.23959 q 0,2.44791 -1.385414,4.08332 -1.374998,1.63542 -3.739578,1.63542 -2.374996,0 -3.76041,-1.63542 -1.374998,-1.63541 -1.374998,-4.08332 z m 1.92708,-0.23959 v 0.23959 q 0,1.67708 0.791666,2.90624 0.802082,1.22917 2.416662,1.22917 1.583331,0 2.385413,-1.22917 0.802082,-1.22916 0.802082,-2.90624 v -0.23959 q 0,-1.65624 -0.802082,-2.89582 -0.802082,-1.25 -2.406246,-1.25 -1.593747,0 -2.395829,1.25 -0.791666,1.23958 -0.791666,2.89582 z m 17.739553,5.74999 -0.04167,-1.11458 q -0.520832,0.625 -1.333331,0.97917 -0.812498,0.34375 -1.95833,0.34375 -1.656247,0 -2.677079,-0.97917 -1.020832,-0.97916 -1.020832,-3.22916 v -7.27082 h 1.92708 v 7.29165 q 0,1.52084 0.635416,2.04167 0.645832,0.51041 1.437498,0.51041 1.177081,0 1.885414,-0.44791 0.708332,-0.44792 1.052081,-1.1875 v -8.20832 h 1.937497 v 11.27081 z m 9.270816,-9.62498 q -0.989582,0 -1.624998,0.44792 -0.635415,0.4375 -0.947915,1.17708 v 7.99998 h -1.92708 v -11.27081 h 1.874997 l 0.04167,1.29166 q 0.427083,-0.68749 1.083332,-1.09374 0.666666,-0.40625 1.593748,-0.40625 0.541665,0 0.854165,0.14583 l -0.01042,1.79166 q -0.427082,-0.0833 -0.937498,-0.0833 z m 12.531237,8.24999 q 1.031248,0 1.80208,-0.61459 0.781248,-0.61458 0.854168,-1.57291 h 1.83333 q -0.0729,1.51041 -1.38542,2.64583 -1.312494,1.125 -3.104158,1.125 -2.541663,0 -3.781244,-1.67708 -1.229165,-1.67708 -1.229165,-3.94791 v -0.4375 q 0,-2.27083 1.229165,-3.94791 1.239581,-1.67708 3.781244,-1.67708 1.979164,0 3.197908,1.17708 1.21875,1.16666 1.29167,2.90624 h -1.83333 q -0.0729,-1.04166 -0.791668,-1.77083 -0.708332,-0.72916 -1.86458,-0.72916 -1.187498,0 -1.86458,0.60416 -0.666666,0.60417 -0.947916,1.53125 -0.270832,0.92708 -0.270832,1.90625 v 0.4375 q 0,0.98958 0.270832,1.91666 0.270833,0.92708 0.937499,1.53125 0.677082,0.59375 1.874997,0.59375 z m 6.145828,-4.13541 v -0.23959 q 0,-2.44791 1.37499,-4.08332 1.375,-1.64583 3.73958,-1.64583 2.38541,0 3.76041,1.64583 1.38542,1.63541 1.38542,4.08332 v 0.23959 q 0,2.44791 -1.38542,4.08332 -1.375,1.63542 -3.73958,1.63542 -2.37499,0 -3.76041,-1.63542 -1.37499,-1.63541 -1.37499,-4.08332 z m 1.92708,-0.23959 v 0.23959 q 0,1.67708 0.79166,2.90624 0.80208,1.22917 2.41666,1.22917 1.58333,0 2.38542,-1.22917 0.80208,-1.22916 0.80208,-2.90624 v -0.23959 q 0,-1.65624 -0.80208,-2.89582 -0.80209,-1.25 -2.40625,-1.25 -1.59375,0 -2.39583,1.25 -0.79166,1.23958 -0.79166,2.89582 z m 15.42705,-4.10416 q -0.92708,0 -1.63542,0.5 -0.70833,0.5 -1.11458,1.30208 v 8.05207 h -1.92708 v -11.27081 h 1.82292 l 0.0625,1.40625 q 1.28124,-1.61458 3.36457,-1.61458 1.66667,0 2.63542,0.93749 0.97916,0.9375 0.97916,3.15625 v 7.3854 h -1.9375 v -7.40623 q 0,-1.32292 -0.58333,-1.88542 -0.57291,-0.5625 -1.66666,-0.5625 z m 11.87498,9.85415 q -0.22916,0.0729 -0.60416,0.13542 -0.36459,0.0729 -0.88542,0.0729 -1.07291,0 -1.83333,-0.65625 -0.76041,-0.65625 -0.76041,-2.35416 v -6.98958 h -2.0625 v -1.47916 h 2.0625 v -2.73958 h 1.92708 v 2.73958 h 2.10416 v 1.47916 h -2.10416 v 6.99999 q 0,0.86458 0.375,1.10417 0.375,0.23958 0.86458,0.23958 0.23958,0 0.5,-0.0417 0.27083,-0.0521 0.40625,-0.0833 z m 9.16666,0 q -0.1875,-0.40624 -0.27084,-1.18749 -0.54166,0.57291 -1.35416,0.98958 -0.8125,0.40625 -1.85417,0.40625 -1.72916,0 -2.77082,-0.96875 -1.04167,-0.96875 -1.04167,-2.375 0,-1.81249 1.375,-2.74999 1.375,-0.94792 3.69791,-0.94792 h 1.90625 v -0.89583 q 0,-1 -0.60417,-1.59375 -0.59375,-0.60416 -1.77083,-0.60416 -1.09375,0 -1.77083,0.54166 -0.66667,0.53125 -0.66667,1.23958 h -1.92708 q 0,-1.20833 1.21875,-2.27083 1.21875,-1.06249 3.26041,-1.06249 1.83333,0 3.01042,0.93749 1.17708,0.9375 1.17708,2.83333 v 5.25 q 0,0.56249 0.0937,1.19791 0.10416,0.63542 0.30208,1.09375 v 0.16666 z m -3.19792,-1.47916 q 1.04167,0 1.80209,-0.52083 0.77083,-0.52083 1.08333,-1.15625 v -2.32291 h -1.59375 q -3.44791,0 -3.44791,2.08333 0,0.80208 0.54166,1.36458 0.54167,0.55208 1.61458,0.55208 z m 7.85415,-12.78123 q 0,-0.46875 0.28125,-0.79166 0.29167,-0.32292 0.85417,-0.32292 0.55208,0 0.84375,0.32292 0.30208,0.32291 0.30208,0.79166 0,0.44792 -0.30208,0.77083 -0.29167,0.3125 -0.84375,0.3125 -0.5625,0 -0.85417,-0.3125 -0.28125,-0.32291 -0.28125,-0.77083 z m 2.08333,2.98958 v 11.27081 h -1.9375 v -11.27081 z m 7.77083,1.41666 q -0.92708,0 -1.63541,0.5 -0.70834,0.5 -1.11458,1.30208 v 8.05207 h -1.92708 v -11.27081 h 1.82291 l 0.0625,1.40625 q 1.28125,-1.61458 3.36458,-1.61458 1.66666,0 2.63541,0.93749 0.97916,0.9375 0.97916,3.15625 v 7.3854 h -1.93749 v -7.40623 q 0,-1.32292 -0.58333,-1.88542 -0.57292,-0.5625 -1.66667,-0.5625 z m 16.02081,7.88541 q -0.55208,0.83333 -1.5625,1.51041 -1.01041,0.66667 -2.67707,0.66667 -2.35417,0 -3.77083,-1.53125 -1.40625,-1.53125 -1.40625,-3.91666 v -0.4375 q 0,-1.84375 0.69792,-3.13541 0.70833,-1.30208 1.83333,-1.97916 1.12499,-0.6875 2.39583,-0.6875 2.41666,0 3.52082,1.58333 1.11459,1.57291 1.11459,3.93749 v 0.86458 h -7.62499 q 0.0417,1.55208 0.91666,2.64583 0.88542,1.08333 2.42708,1.08333 1.02083,0 1.72917,-0.41666 0.70833,-0.41667 1.23958,-1.11458 z m -4.48957,-7.92707 q -1.14584,0 -1.9375,0.83333 -0.79167,0.83333 -0.98958,2.39583 h 5.63541 v -0.14583 q -0.0729,-1.125 -0.65625,-2.10417 -0.57292,-0.97916 -2.05208,-0.97916 z m 11.38538,0.27083 q -0.98958,0 -1.625,0.44792 -0.63541,0.4375 -0.94791,1.17708 v 7.99998 h -1.92708 v -11.27081 h 1.875 l 0.0417,1.29166 q 0.42709,-0.68749 1.08333,-1.09374 0.66667,-0.40625 1.59375,-0.40625 0.54167,0 0.85417,0.14583 l -0.0104,1.79166 q -0.42708,-0.0833 -0.9375,-0.0833 z"
         id="path211" /><path
         d="m 63.347058,-115.95726 -3.270828,11.27081 h -1.562497 l -2.739579,-8.53124 -2.666663,8.53124 h -1.572914 l -3.270828,-11.27081 h 1.92708 l 2.218747,8.41665 2.624995,-8.41665 h 1.552081 l 2.666663,8.59373 2.17708,-8.59373 z m 1.458332,5.7604 v -0.23958 q 0,-2.44791 1.374998,-4.08333 1.374997,-1.64583 3.739577,-1.64583 2.385413,0 3.760411,1.64583 1.385414,1.63542 1.385414,4.08333 v 0.23958 q 0,2.44792 -1.385414,4.08333 -1.374998,1.63541 -3.739578,1.63541 -2.374996,0 -3.76041,-1.63541 -1.374998,-1.63541 -1.374998,-4.08333 z m 1.92708,-0.23958 v 0.23958 q 0,1.67708 0.791666,2.90625 0.802082,1.22916 2.416662,1.22916 1.583331,0 2.385413,-1.22916 0.802082,-1.22917 0.802082,-2.90625 v -0.23958 q 0,-1.65625 -0.802082,-2.89583 -0.802082,-1.25 -2.406246,-1.25 -1.593747,0 -2.395829,1.25 -0.791666,1.23958 -0.791666,2.89583 z m 15.249976,-3.87499 q -0.989582,0 -1.624998,0.44791 -0.635416,0.4375 -0.947915,1.17708 v 7.99999 h -1.92708 v -11.27081 h 1.874997 l 0.04167,1.29166 q 0.427083,-0.6875 1.083332,-1.09375 0.666666,-0.40625 1.593747,-0.40625 0.541666,0 0.854166,0.14584 l -0.01042,1.79166 q -0.427083,-0.0833 -0.937498,-0.0833 z m 9.791652,9.62498 -3.906244,-5.22916 -1.218748,1.26042 v 3.96874 h -1.937497 v -15.99997 h 1.937497 v 9.66665 l 1.031248,-1.22917 3.499995,-3.70832 h 2.354163 l -4.395827,4.6979 4.906243,6.57291 z m 5.843739,-15.99997 v 15.99997 H 95.68034 v -15.99997 z m 2.583333,10.48956 v -0.23958 q 0,-2.44791 1.37499,-4.08333 1.375,-1.64583 3.73958,-1.64583 2.38541,0 3.76041,1.64583 1.38542,1.63542 1.38542,4.08333 v 0.23958 q 0,2.44792 -1.38542,4.08333 -1.375,1.63541 -3.73957,1.63541 -2.375,0 -3.76042,-1.63541 -1.37499,-1.63541 -1.37499,-4.08333 z m 1.92708,-0.23958 v 0.23958 q 0,1.67708 0.79166,2.90625 0.80208,1.22916 2.41667,1.22916 1.58333,0 2.38541,-1.22916 0.80208,-1.22917 0.80208,-2.90625 v -0.23958 q 0,-1.65625 -0.80208,-2.89583 -0.80208,-1.25 -2.40625,-1.25 -1.59375,0 -2.39583,1.25 -0.79166,1.23958 -0.79166,2.89583 z m 17.7083,5.74999 q -0.1875,-0.40625 -0.27083,-1.1875 -0.54167,0.57292 -1.35416,0.98958 -0.8125,0.40625 -1.85417,0.40625 -1.72916,0 -2.77083,-0.96874 -1.04166,-0.96875 -1.04166,-2.375 0,-1.8125 1.375,-2.75 1.37499,-0.94791 3.69791,-0.94791 h 1.90624 v -0.89583 q 0,-1 -0.60416,-1.59375 -0.59375,-0.60417 -1.77083,-0.60417 -1.09375,0 -1.77083,0.54167 -0.66667,0.53125 -0.66667,1.23958 h -1.92708 q 0,-1.20833 1.21875,-2.27083 1.21875,-1.0625 3.26041,-1.0625 1.83333,0 3.01041,0.9375 1.17708,0.9375 1.17708,2.83333 v 5.24999 q 0,0.5625 0.0937,1.19792 0.10417,0.63541 0.30209,1.09374 v 0.16667 z m -3.19791,-1.47916 q 1.04167,0 1.80208,-0.52084 0.77083,-0.52083 1.08333,-1.15624 v -2.32292 h -1.59374 q -3.44791,0 -3.44791,2.08333 0,0.80209 0.54166,1.36458 0.54167,0.55209 1.61458,0.55209 z m 15.11456,1.47916 -0.0937,-1.20833 q -1.15625,1.41666 -3.21874,1.41666 -1.98958,0 -3.21875,-1.62499 -1.21875,-1.625 -1.21875,-4.09375 v -0.21875 q 0,-2.58333 1.21875,-4.16666 1.22917,-1.58333 3.23958,-1.58333 1.98958,0 3.125,1.33333 v -5.85415 h 1.93749 v 15.99997 z m -5.81249,-5.51041 q 0,1.67708 0.70833,2.88542 0.70834,1.19791 2.27083,1.19791 1.01042,0 1.64583,-0.45833 0.63542,-0.45834 1.02084,-1.17708 v -5.1875 q -0.375,-0.69791 -1.02084,-1.14583 -0.63541,-0.45833 -1.62499,-0.45833 -1.57292,0 -2.29167,1.22916 -0.70833,1.21875 -0.70833,2.89583 z m 17.13539,2.52083 q 0,-0.625 -0.46875,-1.11458 -0.45833,-0.5 -2.125,-0.83333 -1.88541,-0.39583 -2.97916,-1.125 -1.08333,-0.72917 -1.08333,-2.125 0,-1.33333 1.13541,-2.31249 1.14583,-0.97917 3.04166,-0.97917 2.02083,0 3.15625,1.03125 1.13541,1.03125 1.13541,2.48958 h -1.92708 q 0,-0.69792 -0.61458,-1.3125 -0.61458,-0.625 -1.75,-0.625 -1.19791,0 -1.71874,0.52084 -0.52084,0.52083 -0.52084,1.13541 0,0.625 0.5,1.01042 0.5,0.375 2.09375,0.72916 2.07291,0.47917 3.0625,1.23958 0.98958,0.76042 0.98958,2.125 0,1.48958 -1.19792,2.41666 -1.1875,0.92708 -3.15624,0.92708 -2.23958,0 -3.42708,-1.14583 -1.1875,-1.14583 -1.1875,-2.54166 h 1.9375 q 0.0625,1.19791 0.91666,1.65625 0.86459,0.44791 1.76042,0.44791 1.17708,0 1.80208,-0.45833 0.625,-0.45833 0.625,-1.15625 z"
         id="path212" /></g><path
       style="font-size:21.3333px;font-family:Roboto;-inkscape-font-specification:Roboto;text-align:center;text-anchor:middle;white-space:pre;fill:#f7941d;stroke-width:0.583;stroke-linejoin:round"
       d="m 96.112104,154.76225 h 1.999997 q -0.229166,2.15624 -1.624998,3.59374 -1.395831,1.4375 -4.124993,1.4375 -2.666662,0 -4.29166,-1.91666 -1.624997,-1.92708 -1.624997,-5.11458 v -1.51041 q 0,-3.1875 1.635414,-5.11458 1.64583,-1.92708 4.458326,-1.92708 2.572913,0 3.958327,1.41667 1.385415,1.41666 1.614581,3.65624 h -1.999997 q -0.229166,-1.58333 -1.020832,-2.5 -0.791665,-0.92708 -2.552079,-0.92708 -2.010413,0 -3.052078,1.47917 -1.041666,1.47916 -1.041666,3.89582 v 1.53125 q 0,2.23958 0.947916,3.82291 0.947915,1.57292 2.968745,1.57292 1.916664,0 2.697912,-0.89584 0.791666,-0.89583 1.052082,-2.49999 z m 3.927076,-0.6875 v -0.23958 q 0,-2.44792 1.375,-4.08333 1.375,-1.64583 3.73958,-1.64583 2.38541,0 3.76041,1.64583 1.38541,1.63541 1.38541,4.08333 v 0.23958 q 0,2.44791 -1.38541,4.08333 -1.375,1.63541 -3.73958,1.63541 -2.375,0 -3.76041,-1.63541 -1.375,-1.63542 -1.375,-4.08333 z m 1.92708,-0.23958 v 0.23958 q 0,1.67708 0.79167,2.90624 0.80208,1.22917 2.41666,1.22917 1.58333,0 2.38541,-1.22917 0.80209,-1.22916 0.80209,-2.90624 v -0.23958 q 0,-1.65625 -0.80209,-2.89583 -0.80208,-1.25 -2.40624,-1.25 -1.59375,0 -2.39583,1.25 -0.79167,1.23958 -0.79167,2.89583 z m 15.42706,-4.10416 q -0.92708,0 -1.63541,0.5 -0.70833,0.49999 -1.11458,1.30208 v 8.05207 h -1.92708 v -11.27082 h 1.82291 l 0.0625,1.40625 q 1.28125,-1.61458 3.36458,-1.61458 1.66666,0 2.63541,0.9375 0.97917,0.9375 0.97917,3.15624 v 7.38541 h -1.9375 v -7.40624 q 0,-1.32292 -0.58333,-1.88541 -0.57292,-0.5625 -1.66667,-0.5625 z m 11.87498,9.85415 q -0.22916,0.0729 -0.60416,0.13541 -0.36459,0.0729 -0.88542,0.0729 -1.07291,0 -1.83333,-0.65625 -0.76041,-0.65625 -0.76041,-2.35416 v -6.98957 h -2.0625 v -1.47917 h 2.0625 v -2.73958 h 1.92708 v 2.73958 h 2.10416 v 1.47917 h -2.10416 v 6.99999 q 0,0.86458 0.375,1.10416 0.375,0.23958 0.86458,0.23958 0.23958,0 0.5,-0.0417 0.27083,-0.0521 0.40625,-0.0833 z m 9.16666,0 q -0.1875,-0.40625 -0.27084,-1.1875 -0.54166,0.57292 -1.35416,0.98958 -0.8125,0.40625 -1.85417,0.40625 -1.72916,0 -2.77082,-0.96875 -1.04167,-0.96875 -1.04167,-2.37499 0,-1.8125 1.375,-2.75 1.375,-0.94792 3.69791,-0.94792 h 1.90625 V 151.856 q 0,-1 -0.60417,-1.59374 -0.59375,-0.60417 -1.77083,-0.60417 -1.09375,0 -1.77083,0.54167 -0.66667,0.53124 -0.66667,1.23958 h -1.92708 q 0,-1.20833 1.21875,-2.27083 1.21875,-1.0625 3.26041,-1.0625 1.83333,0 3.01042,0.9375 1.17708,0.9375 1.17708,2.83333 v 5.24999 q 0,0.5625 0.0937,1.19791 0.10416,0.63542 0.30208,1.09375 v 0.16667 z m -3.19792,-1.47917 q 1.04167,0 1.80208,-0.52083 0.77084,-0.52083 1.08334,-1.15625 V 154.106 h -1.59375 q -3.44791,0 -3.44791,2.08333 0,0.80208 0.54166,1.36458 0.54167,0.55208 1.61458,0.55208 z m 7.85416,-12.78123 q 0,-0.46875 0.28124,-0.79166 0.29167,-0.32292 0.85417,-0.32292 0.55208,0 0.84375,0.32292 0.30208,0.32291 0.30208,0.79166 0,0.44792 -0.30208,0.77084 -0.29167,0.31249 -0.84375,0.31249 -0.5625,0 -0.85417,-0.31249 -0.28124,-0.32292 -0.28124,-0.77084 z m 2.08333,2.98958 v 11.27082 h -1.9375 v -11.27082 z m 7.77082,1.41667 q -0.92708,0 -1.63542,0.5 -0.70833,0.49999 -1.11458,1.30208 v 8.05207 h -1.92708 v -11.27082 h 1.82291 l 0.0625,1.40625 q 1.28125,-1.61458 3.36458,-1.61458 1.66667,0 2.63542,0.9375 0.97916,0.9375 0.97916,3.15624 v 7.38541 h -1.9375 v -7.40624 q 0,-1.32292 -0.58333,-1.88541 -0.57291,-0.5625 -1.66666,-0.5625 z m 16.0208,7.8854 q -0.55208,0.83333 -1.56249,1.51041 -1.01042,0.66667 -2.67708,0.66667 -2.35417,0 -3.77083,-1.53125 -1.40625,-1.53124 -1.40625,-3.91666 v -0.4375 q 0,-1.84374 0.69792,-3.13541 0.70833,-1.30208 1.83333,-1.97916 1.125,-0.6875 2.39583,-0.6875 2.41666,0 3.52083,1.58333 1.11458,1.57291 1.11458,3.93749 v 0.86459 H 161.487 q 0.0417,1.55208 0.91666,2.64582 0.88542,1.08334 2.42708,1.08334 1.02084,0 1.72917,-0.41667 0.70833,-0.41667 1.23958,-1.11458 z m -4.48957,-7.92707 q -1.14583,0 -1.9375,0.83333 -0.79166,0.83333 -0.98958,2.39583 h 5.63541 v -0.14583 q -0.0729,-1.125 -0.65625,-2.10417 -0.57292,-0.97916 -2.05208,-0.97916 z m 11.3854,0.27083 q -0.98958,0 -1.625,0.44792 -0.63541,0.4375 -0.94791,1.17708 v 7.99999 h -1.92708 v -11.27082 h 1.87499 l 0.0417,1.29167 q 0.42708,-0.6875 1.08333,-1.09375 0.66667,-0.40625 1.59375,-0.40625 0.54167,0 0.85416,0.14583 l -0.0104,1.79167 q -0.42708,-0.0833 -0.9375,-0.0833 z m 13.90623,3.67708 h -3.58333 v 5.94791 h -2.01041 v -15.16665 h 5.59374 q 2.58333,0 3.94791,1.30209 1.375,1.30208 1.375,3.32291 0,2.19791 -1.375,3.39583 -1.36458,1.19791 -3.94791,1.19791 z m -3.58333,-7.5729 v 5.93749 h 3.58333 q 1.77083,0 2.54166,-0.82292 0.77083,-0.82291 0.77083,-2.11458 0,-1.16666 -0.77083,-2.08333 -0.77083,-0.91666 -2.54166,-0.91666 z m 13.24998,-2.47917 v 15.99998 h -1.9375 v -15.99998 z m 10.05207,15.99998 q -0.1875,-0.40625 -0.27084,-1.1875 -0.54166,0.57292 -1.35416,0.98958 -0.8125,0.40625 -1.85416,0.40625 -1.72917,0 -2.77083,-0.96875 -1.04167,-0.96875 -1.04167,-2.37499 0,-1.8125 1.375,-2.75 1.375,-0.94792 3.69791,-0.94792 h 1.90625 V 151.856 q 0,-1 -0.60417,-1.59374 -0.59375,-0.60417 -1.77083,-0.60417 -1.09375,0 -1.77083,0.54167 -0.66666,0.53124 -0.66666,1.23958 h -1.92708 q 0,-1.20833 1.21874,-2.27083 1.21875,-1.0625 3.26041,-1.0625 1.83334,0 3.01042,0.9375 1.17708,0.9375 1.17708,2.83333 v 5.24999 q 0,0.5625 0.0937,1.19791 0.10416,0.63542 0.30208,1.09375 v 0.16667 z m -3.19791,-1.47917 q 1.04166,0 1.80208,-0.52083 0.77083,-0.52083 1.08333,-1.15625 V 154.106 h -1.59375 q -3.44791,0 -3.44791,2.08333 0,0.80208 0.54167,1.36458 0.54166,0.55208 1.61458,0.55208 z m 12.61455,1.47917 q -0.22916,0.0729 -0.60416,0.13541 -0.36459,0.0729 -0.88542,0.0729 -1.07291,0 -1.83333,-0.65625 -0.76041,-0.65625 -0.76041,-2.35416 v -6.98957 h -2.0625 v -1.47917 h 2.0625 v -2.73958 h 1.92708 v 2.73958 h 2.10416 v 1.47917 h -2.10416 v 6.99999 q 0,0.86458 0.37499,1.10416 0.375,0.23958 0.86459,0.23958 0.23958,0 0.5,-0.0417 0.27083,-0.0521 0.40625,-0.0833 z m 7.47917,-9.79165 h -2.39583 v 9.79165 h -1.92708 v -9.79165 h -1.78125 v -1.47917 h 1.78125 v -1.1875 q 0,-1.82291 0.97916,-2.79166 0.98958,-0.96875 2.71875,-0.96875 0.63541,0 1.33333,0.16667 l -0.10417,1.57291 q -0.4375,-0.0937 -1.04166,-0.0937 -1.95833,0 -1.95833,2.11458 v 1.1875 h 2.39583 z m 1.63541,4.28124 v -0.23958 q 0,-2.44792 1.375,-4.08333 1.375,-1.64583 3.73958,-1.64583 2.38541,0 3.76041,1.64583 1.38541,1.63541 1.38541,4.08333 v 0.23958 q 0,2.44791 -1.38541,4.08333 -1.375,1.63541 -3.73958,1.63541 -2.375,0 -3.76041,-1.63541 -1.375,-1.63542 -1.375,-4.08333 z m 1.92708,-0.23958 v 0.23958 q 0,1.67708 0.79167,2.90624 0.80208,1.22917 2.41666,1.22917 1.58333,0 2.38541,-1.22917 0.80208,-1.22916 0.80208,-2.90624 v -0.23958 q 0,-1.65625 -0.80208,-2.89583 -0.80208,-1.25 -2.40624,-1.25 -1.59375,0 -2.39583,1.25 -0.79167,1.23958 -0.79167,2.89583 z m 15.24997,-3.875 q -0.98958,0 -1.625,0.44792 -0.63541,0.4375 -0.94791,1.17708 v 7.99999 h -1.92708 v -11.27082 h 1.875 l 0.0417,1.29167 q 0.42708,-0.6875 1.08333,-1.09375 0.66667,-0.40625 1.59375,-0.40625 0.54167,0 0.85417,0.14583 l -0.0104,1.79167 q -0.42708,-0.0833 -0.9375,-0.0833 z m 7.23957,-0.22916 q -1.03124,0 -1.65624,0.4375 -0.625,0.43749 -0.9375,1.15624 v 8.26041 h -1.9375 v -11.27082 h 1.83333 l 0.0521,1.22917 q 1.21874,-1.4375 3.33332,-1.4375 1.08333,0 1.92708,0.4375 0.85417,0.42708 1.30208,1.375 0.5625,-0.8125 1.45834,-1.3125 0.90624,-0.5 2.12499,-0.5 1.8125,0 2.79166,0.96875 0.98959,0.96875 0.98959,3.10416 v 7.40624 h -1.9375 v -7.42707 q 0,-1.41667 -0.65625,-1.91667 -0.64583,-0.51041 -1.75,-0.51041 -1.16666,0 -1.83333,0.69791 -0.66666,0.6875 -0.77083,1.67708 v 7.47916 h -1.92708 v -7.41666 q 0,-1.32291 -0.65625,-1.87499 -0.65625,-0.5625 -1.75,-0.5625 z"
       id="text65"
       transform="matrix(0.38655582,0,0,0.44616743,-21.815085,-23.739114)"
       aria-label="Container Platform" /></g></svg>
