<?xml version="1.0" encoding="UTF-8" standalone="no"?>
<!-- Created with Inkscape (http://www.inkscape.org/) -->

<svg
   width="90.800003mm"
   height="90.800003mm"
   viewBox="0 0 90.800003 90.800003"
   version="1.1"
   id="svg1"
   inkscape:version="1.4.2 (ebf0e940d0, 2025-05-08)"
   sodipodi:docname="railcp_back.svg"
   inkscape:export-filename="/tmp/railcp_back.svg"
   inkscape:export-xdpi="96"
   inkscape:export-ydpi="96"
   xml:space="preserve"
   xmlns:inkscape="http://www.inkscape.org/namespaces/inkscape"
   xmlns:sodipodi="http://sodipodi.sourceforge.net/DTD/sodipodi-0.dtd"
   xmlns="http://www.w3.org/2000/svg"
   xmlns:svg="http://www.w3.org/2000/svg"><sodipodi:namedview
     id="namedview1"
     pagecolor="#ffffff"
     bordercolor="#000000"
     borderopacity="0.25"
     inkscape:showpageshadow="2"
     inkscape:pageopacity="0.0"
     inkscape:pagecheckerboard="0"
     inkscape:deskcolor="#d1d1d1"
     inkscape:document-units="mm"
     inkscape:zoom="1.1502489"
     inkscape:cx="397.30531"
     inkscape:cy="169.09384"
     inkscape:window-width="1920"
     inkscape:window-height="1156"
     inkscape:window-x="0"
     inkscape:window-y="0"
     inkscape:window-maximized="1"
     inkscape:current-layer="layer1" /><defs
     id="defs1"><rect
       x="63.464525"
       y="139.96971"
       width="223.4299"
       height="41.730099"
       id="rect65" /><rect
       x="-8.6937705"
       y="-204.30361"
       width="211.25862"
       height="104.32524"
       id="rect64" /><rect
       x="75.635804"
       y="181.6998"
       width="212.99738"
       height="123.45154"
       id="rect63" /><rect
       x="96.500853"
       y="-115.62715"
       width="267.76814"
       height="43.468852"
       id="rect3" /><clipPath
       clipPathUnits="userSpaceOnUse"
       id="clipPath49-0"><path
         d="M 324,120 H 676 V 621 H 324 Z"
         transform="translate(-499.99998,-370.5)"
         id="path49-2" /></clipPath><clipPath
       clipPathUnits="userSpaceOnUse"
       id="clipPath50-3"><path
         d="M 324,120 H 676 V 621 H 324 Z"
         transform="translate(-372.85001,-329.91)"
         id="path50-7" /></clipPath><clipPath
       clipPathUnits="userSpaceOnUse"
       id="clipPath51-5"><path
         d="M 324,120 H 676 V 621 H 324 Z"
         transform="translate(-392.12443,-329.91)"
         id="path51-9" /></clipPath><clipPath
       clipPathUnits="userSpaceOnUse"
       id="clipPath52-2"><path
         d="M 324,120 H 676 V 621 H 324 Z"
         transform="translate(-409.19082,-329.91)"
         id="path52-2" /></clipPath><clipPath
       clipPathUnits="userSpaceOnUse"
       id="clipPath53-8"><path
         d="M 324,120 H 676 V 621 H 324 Z"
         transform="translate(-425.65956,-329.91)"
         id="path53-9" /></clipPath><clipPath
       clipPathUnits="userSpaceOnUse"
       id="clipPath54-7"><path
         d="M 324,120 H 676 V 621 H 324 Z"
         transform="translate(-435.72011,-329.91)"
         id="path54-3" /></clipPath><clipPath
       clipPathUnits="userSpaceOnUse"
       id="clipPath55-6"><path
         d="M 324,120 H 676 V 621 H 324 Z"
         transform="translate(-452.00625,-329.91)"
         id="path55-1" /></clipPath><clipPath
       clipPathUnits="userSpaceOnUse"
       id="clipPath56-2"><path
         d="M 324,120 H 676 V 621 H 324 Z"
         transform="translate(-459.80898,-329.91)"
         id="path56-9" /></clipPath><clipPath
       clipPathUnits="userSpaceOnUse"
       id="clipPath57-3"><path
         d="M 324,120 H 676 V 621 H 324 Z"
         transform="translate(-476.27772,-329.91)"
         id="path57-1" /></clipPath><clipPath
       clipPathUnits="userSpaceOnUse"
       id="clipPath58-9"><path
         d="M 324,120 H 676 V 621 H 324 Z"
         transform="translate(-492.21524,-329.91)"
         id="path58-4" /></clipPath><clipPath
       clipPathUnits="userSpaceOnUse"
       id="clipPath59-7"><path
         d="M 324,120 H 676 V 621 H 324 Z"
         transform="translate(-502.57461,-329.91)"
         id="path59-8" /></clipPath><clipPath
       clipPathUnits="userSpaceOnUse"
       id="clipPath60-4"><path
         d="M 324,120 H 676 V 621 H 324 Z"
         transform="translate(-510.37735,-329.91)"
         id="path60-5" /></clipPath><clipPath
       clipPathUnits="userSpaceOnUse"
       id="clipPath61-0"><path
         d="M 324,120 H 676 V 621 H 324 Z"
         transform="translate(-529.22012,-329.91)"
         id="path61-3" /></clipPath><clipPath
       clipPathUnits="userSpaceOnUse"
       id="clipPath62-6"><path
         d="M 324,120 H 676 V 621 H 324 Z"
         transform="translate(-537.02285,-329.91)"
         id="path62-1" /></clipPath><clipPath
       clipPathUnits="userSpaceOnUse"
       id="clipPath63-0"><path
         d="M 324,120 H 676 V 621 H 324 Z"
         transform="translate(-553.30899,-329.91)"
         id="path63-6" /></clipPath><clipPath
       clipPathUnits="userSpaceOnUse"
       id="clipPath64-3"><path
         d="M 324,120 H 676 V 621 H 324 Z"
         transform="translate(-563.36954,-329.91)"
         id="path64-2" /></clipPath><clipPath
       clipPathUnits="userSpaceOnUse"
       id="clipPath65-0"><path
         d="M 324,120 H 676 V 621 H 324 Z"
         transform="translate(-574.12735,-329.91)"
         id="path65-6" /></clipPath><clipPath
       clipPathUnits="userSpaceOnUse"
       id="clipPath66-1"><path
         d="M 324,120 H 676 V 621 H 324 Z"
         transform="translate(-591.19375,-329.91)"
         id="path66-5" /></clipPath><clipPath
       clipPathUnits="userSpaceOnUse"
       id="clipPath67-5"><path
         d="M 324,120 H 676 V 621 H 324 Z"
         transform="translate(-601.55312,-329.91)"
         id="path67-4" /></clipPath><clipPath
       clipPathUnits="userSpaceOnUse"
       id="clipPath262-9"><path
         d="M 324,120 H 676 V 621 H 324 Z"
         transform="translate(-499.99998,-370.5)"
         id="path262-3" /></clipPath><clipPath
       clipPathUnits="userSpaceOnUse"
       id="clipPath263-7"><path
         d="M 324,120 H 676 V 621 H 324 Z"
         transform="matrix(0.98911968,0,0,0.98911969,-390.05393,-37.950445)"
         id="path263-4" /></clipPath><clipPath
       clipPathUnits="userSpaceOnUse"
       id="clipPath264-5"><path
         d="M 324,120 H 676 V 621 H 324 Z"
         transform="matrix(0.98911968,0,0,0.98911969,-390.05577,-37.950793)"
         id="path264-2" /></clipPath><clipPath
       clipPathUnits="userSpaceOnUse"
       id="clipPath265-5"><path
         d="M 324,120 H 676 V 621 H 324 Z"
         transform="matrix(0.98911968,0,0,0.98911969,-390.0534,-37.942582)"
         id="path265-4" /></clipPath><clipPath
       clipPathUnits="userSpaceOnUse"
       id="clipPath88-0"><path
         d="M 324,120 H 676 V 621 H 324 Z"
         transform="translate(-499.99998,-370.5)"
         id="path88-7" /></clipPath><clipPath
       clipPathUnits="userSpaceOnUse"
       id="clipPath89-8"><path
         d="M 324,120 H 676 V 621 H 324 Z"
         transform="translate(-385.73,-407.28)"
         id="path89-6" /></clipPath><clipPath
       clipPathUnits="userSpaceOnUse"
       id="clipPath90-8"><path
         d="M 324,120 H 676 V 621 H 324 Z"
         transform="translate(-399.32375,-407.28)"
         id="path90-8" /></clipPath><clipPath
       clipPathUnits="userSpaceOnUse"
       id="clipPath91-4"><path
         d="M 324,120 H 676 V 621 H 324 Z"
         transform="translate(-420.91798,-407.28)"
         id="path91-3" /></clipPath><clipPath
       clipPathUnits="userSpaceOnUse"
       id="clipPath92-1"><path
         d="M 324,120 H 676 V 621 H 324 Z"
         transform="translate(-434.3135,-407.28)"
         id="path92-4" /></clipPath><clipPath
       clipPathUnits="userSpaceOnUse"
       id="clipPath93-9"><path
         d="M 324,120 H 676 V 621 H 324 Z"
         transform="translate(-440.96876,-407.28)"
         id="path93-2" /></clipPath><clipPath
       clipPathUnits="userSpaceOnUse"
       id="clipPath94-0"><path
         d="M 324,120 H 676 V 621 H 324 Z"
         transform="translate(-454.56252,-407.28)"
         id="path94-6" /></clipPath><clipPath
       clipPathUnits="userSpaceOnUse"
       id="clipPath95-8"><path
         d="M 324,120 H 676 V 621 H 324 Z"
         transform="translate(-468.6094,-407.28)"
         id="path95-9" /></clipPath><clipPath
       clipPathUnits="userSpaceOnUse"
       id="clipPath96-2"><path
         d="M 324,120 H 676 V 621 H 324 Z"
         transform="translate(-477.19043,-407.28)"
         id="path96-6" /></clipPath><clipPath
       clipPathUnits="userSpaceOnUse"
       id="clipPath97-6"><path
         d="M 324,120 H 676 V 621 H 324 Z"
         transform="translate(-483.84573,-407.28)"
         id="path97-4" /></clipPath><clipPath
       clipPathUnits="userSpaceOnUse"
       id="clipPath98-9"><path
         d="M 324,120 H 676 V 621 H 324 Z"
         transform="translate(-490.50099,-407.28)"
         id="path98-5" /></clipPath><clipPath
       clipPathUnits="userSpaceOnUse"
       id="clipPath99-0"><path
         d="M 324,120 H 676 V 621 H 324 Z"
         transform="translate(-505.05764,-407.28)"
         id="path99-4" /></clipPath><clipPath
       clipPathUnits="userSpaceOnUse"
       id="clipPath100-8"><path
         d="M 324,120 H 676 V 621 H 324 Z"
         transform="translate(-523.90481,-407.28)"
         id="path100-7" /></clipPath><clipPath
       clipPathUnits="userSpaceOnUse"
       id="clipPath101-1"><path
         d="M 324,120 H 676 V 621 H 324 Z"
         transform="translate(-530.56007,-407.28)"
         id="path101-7" /></clipPath><clipPath
       clipPathUnits="userSpaceOnUse"
       id="clipPath102-2"><path
         d="M 324,120 H 676 V 621 H 324 Z"
         transform="translate(-539.73586,-407.28)"
         id="path102-7" /></clipPath><clipPath
       clipPathUnits="userSpaceOnUse"
       id="clipPath103-2"><path
         d="M 324,120 H 676 V 621 H 324 Z"
         transform="translate(-548.5718,-407.28)"
         id="path103-2" /></clipPath><clipPath
       clipPathUnits="userSpaceOnUse"
       id="clipPath104-6"><path
         d="M 324,120 H 676 V 621 H 324 Z"
         transform="translate(-555.22707,-407.28)"
         id="path104-1" /></clipPath><clipPath
       clipPathUnits="userSpaceOnUse"
       id="clipPath105-0"><path
         d="M 324,120 H 676 V 621 H 324 Z"
         transform="translate(-568.62258,-407.28)"
         id="path105-6" /></clipPath><clipPath
       clipPathUnits="userSpaceOnUse"
       id="clipPath106-1"><path
         d="M 324,120 H 676 V 621 H 324 Z"
         transform="translate(-577.20364,-407.28)"
         id="path106-5" /></clipPath><clipPath
       clipPathUnits="userSpaceOnUse"
       id="clipPath107-9"><path
         d="M 324,120 H 676 V 621 H 324 Z"
         transform="translate(-583.85891,-407.28)"
         id="path107-4" /></clipPath><clipPath
       clipPathUnits="userSpaceOnUse"
       id="clipPath108-9"><path
         d="M 324,120 H 676 V 621 H 324 Z"
         transform="translate(-598.41553,-407.28)"
         id="path108-0" /></clipPath><clipPath
       clipPathUnits="userSpaceOnUse"
       id="clipPath109-9"><path
         d="M 324,120 H 676 V 621 H 324 Z"
         transform="translate(-376.62001,-440.05)"
         id="path109-1" /></clipPath><clipPath
       clipPathUnits="userSpaceOnUse"
       id="clipPath110-7"><path
         d="M 324,120 H 676 V 621 H 324 Z"
         transform="translate(-385.20104,-440.05)"
         id="path110-7" /></clipPath><clipPath
       clipPathUnits="userSpaceOnUse"
       id="clipPath111-1"><path
         d="M 324,120 H 676 V 621 H 324 Z"
         transform="translate(-393.47057,-440.05)"
         id="path111-1" /></clipPath><clipPath
       clipPathUnits="userSpaceOnUse"
       id="clipPath112-5"><path
         d="M 324,120 H 676 V 621 H 324 Z"
         transform="translate(-407.36168,-440.05)"
         id="path112-9" /></clipPath><clipPath
       clipPathUnits="userSpaceOnUse"
       id="clipPath113-7"><path
         d="M 324,120 H 676 V 621 H 324 Z"
         transform="translate(-421.40856,-440.05)"
         id="path113-7" /></clipPath><clipPath
       clipPathUnits="userSpaceOnUse"
       id="clipPath114-6"><path
         d="M 324,120 H 676 V 621 H 324 Z"
         transform="translate(-434.63414,-440.05)"
         id="path114-7" /></clipPath><clipPath
       clipPathUnits="userSpaceOnUse"
       id="clipPath115-3"><path
         d="M 324,120 H 676 V 621 H 324 Z"
         transform="translate(-448.93591,-440.05)"
         id="path115-6" /></clipPath><clipPath
       clipPathUnits="userSpaceOnUse"
       id="clipPath116-5"><path
         d="M 324,120 H 676 V 621 H 324 Z"
         transform="translate(-463.49256,-440.05)"
         id="path116-6" /></clipPath><clipPath
       clipPathUnits="userSpaceOnUse"
       id="clipPath117-3"><path
         d="M 324,120 H 676 V 621 H 324 Z"
         transform="translate(-473.03649,-440.05)"
         id="path117-9" /></clipPath><clipPath
       clipPathUnits="userSpaceOnUse"
       id="clipPath118-4"><path
         d="M 324,120 H 676 V 621 H 324 Z"
         transform="translate(-481.61755,-440.05)"
         id="path118-8" /></clipPath><clipPath
       clipPathUnits="userSpaceOnUse"
       id="clipPath119-1"><path
         d="M 324,120 H 676 V 621 H 324 Z"
         transform="translate(-488.27281,-440.05)"
         id="path119-2" /></clipPath><clipPath
       clipPathUnits="userSpaceOnUse"
       id="clipPath120-9"><path
         d="M 324,120 H 676 V 621 H 324 Z"
         transform="translate(-502.16393,-440.05)"
         id="path120-3" /></clipPath><clipPath
       clipPathUnits="userSpaceOnUse"
       id="clipPath121-9"><path
         d="M 324,120 H 676 V 621 H 324 Z"
         transform="translate(-516.21081,-440.05)"
         id="path121-0" /></clipPath><clipPath
       clipPathUnits="userSpaceOnUse"
       id="clipPath122-8"><path
         d="M 324,120 H 676 V 621 H 324 Z"
         transform="translate(-530.59753,-440.05)"
         id="path122-8" /></clipPath><clipPath
       clipPathUnits="userSpaceOnUse"
       id="clipPath123-5"><path
         d="M 324,120 H 676 V 621 H 324 Z"
         transform="translate(-537.25279,-440.05)"
         id="path123-0" /></clipPath><clipPath
       clipPathUnits="userSpaceOnUse"
       id="clipPath124-9"><path
         d="M 324,120 H 676 V 621 H 324 Z"
         transform="translate(-550.47841,-440.05)"
         id="path124-6" /></clipPath><clipPath
       clipPathUnits="userSpaceOnUse"
       id="clipPath125-3"><path
         d="M 324,120 H 676 V 621 H 324 Z"
         transform="translate(-558.77624,-440.05)"
         id="path125-8" /></clipPath><clipPath
       clipPathUnits="userSpaceOnUse"
       id="clipPath126-5"><path
         d="M 324,120 H 676 V 621 H 324 Z"
         transform="translate(-573.33289,-440.05)"
         id="path126-6" /></clipPath><clipPath
       clipPathUnits="userSpaceOnUse"
       id="clipPath127-1"><path
         d="M 324,120 H 676 V 621 H 324 Z"
         transform="translate(-581.60242,-440.05)"
         id="path127-1" /></clipPath><clipPath
       clipPathUnits="userSpaceOnUse"
       id="clipPath128-5"><path
         d="M 324,120 H 676 V 621 H 324 Z"
         transform="translate(-595.49354,-440.05)"
         id="path128-9" /></clipPath><clipPath
       clipPathUnits="userSpaceOnUse"
       id="clipPath129-8"><path
         d="M 324,120 H 676 V 621 H 324 Z"
         transform="translate(-609.79527,-440.05)"
         id="path129-4" /></clipPath><clipPath
       clipPathUnits="userSpaceOnUse"
       id="clipPath130-8"><path
         d="M 324,120 H 676 V 621 H 324 Z"
         transform="translate(-398.62,-472.82001)"
         id="path130-1" /></clipPath><clipPath
       clipPathUnits="userSpaceOnUse"
       id="clipPath131-0"><path
         d="M 324,120 H 676 V 621 H 324 Z"
         transform="translate(-407.79578,-472.82001)"
         id="path131-3" /></clipPath><clipPath
       clipPathUnits="userSpaceOnUse"
       id="clipPath132-0"><path
         d="M 324,120 H 676 V 621 H 324 Z"
         transform="translate(-422.3524,-472.82001)"
         id="path132-4" /></clipPath><clipPath
       clipPathUnits="userSpaceOnUse"
       id="clipPath133-4"><path
         d="M 324,120 H 676 V 621 H 324 Z"
         transform="translate(-431.18835,-472.82001)"
         id="path133-4" /></clipPath><clipPath
       clipPathUnits="userSpaceOnUse"
       id="clipPath134-4"><path
         d="M 324,120 H 676 V 621 H 324 Z"
         transform="translate(-437.84361,-472.82001)"
         id="path134-7" /></clipPath><clipPath
       clipPathUnits="userSpaceOnUse"
       id="clipPath135-6"><path
         d="M 324,120 H 676 V 621 H 324 Z"
         transform="translate(-449.70985,-472.82001)"
         id="path135-3" /></clipPath><clipPath
       clipPathUnits="userSpaceOnUse"
       id="clipPath136-1"><path
         d="M 324,120 H 676 V 621 H 324 Z"
         transform="translate(-464.26647,-472.82001)"
         id="path136-7" /></clipPath><clipPath
       clipPathUnits="userSpaceOnUse"
       id="clipPath137-5"><path
         d="M 324,120 H 676 V 621 H 324 Z"
         transform="translate(-478.28504,-472.82001)"
         id="path137-9" /></clipPath><clipPath
       clipPathUnits="userSpaceOnUse"
       id="clipPath138-6"><path
         d="M 324,120 H 676 V 621 H 324 Z"
         transform="translate(-487.12099,-472.82001)"
         id="path138-2" /></clipPath><clipPath
       clipPathUnits="userSpaceOnUse"
       id="clipPath139-1"><path
         d="M 324,120 H 676 V 621 H 324 Z"
         transform="translate(-493.77625,-472.82001)"
         id="path139-7" /></clipPath><clipPath
       clipPathUnits="userSpaceOnUse"
       id="clipPath140-8"><path
         d="M 324,120 H 676 V 621 H 324 Z"
         transform="translate(-507.17177,-472.82001)"
         id="path140-5" /></clipPath><clipPath
       clipPathUnits="userSpaceOnUse"
       id="clipPath141-7"><path
         d="M 324,120 H 676 V 621 H 324 Z"
         transform="translate(-521.72839,-472.82001)"
         id="path141-4" /></clipPath><clipPath
       clipPathUnits="userSpaceOnUse"
       id="clipPath142-1"><path
         d="M 324,120 H 676 V 621 H 324 Z"
         transform="translate(-535.77527,-472.82001)"
         id="path142-8" /></clipPath><clipPath
       clipPathUnits="userSpaceOnUse"
       id="clipPath143-5"><path
         d="M 324,120 H 676 V 621 H 324 Z"
         transform="translate(-544.35633,-472.82001)"
         id="path143-9" /></clipPath><clipPath
       clipPathUnits="userSpaceOnUse"
       id="clipPath144-7"><path
         d="M 324,120 H 676 V 621 H 324 Z"
         transform="translate(-558.24744,-472.82001)"
         id="path144-5" /></clipPath><clipPath
       clipPathUnits="userSpaceOnUse"
       id="clipPath145-3"><path
         d="M 324,120 H 676 V 621 H 324 Z"
         transform="translate(-564.90271,-472.82001)"
         id="path145-8" /></clipPath><clipPath
       clipPathUnits="userSpaceOnUse"
       id="clipPath146-8"><path
         d="M 324,120 H 676 V 621 H 324 Z"
         transform="translate(-578.94959,-472.82001)"
         id="path146-3" /></clipPath><clipPath
       clipPathUnits="userSpaceOnUse"
       id="clipPath147-1"><path
         d="M 324,120 H 676 V 621 H 324 Z"
         transform="translate(-592.54335,-472.82001)"
         id="path147-8" /></clipPath><clipPath
       clipPathUnits="userSpaceOnUse"
       id="clipPath148-9"><path
         d="M 324,120 H 676 V 621 H 324 Z"
         transform="translate(-440.98999,-505.59001)"
         id="path148-6" /></clipPath><clipPath
       clipPathUnits="userSpaceOnUse"
       id="clipPath149-4"><path
         d="M 324,120 H 676 V 621 H 324 Z"
         transform="translate(-459.83715,-505.59001)"
         id="path149-3" /></clipPath><clipPath
       clipPathUnits="userSpaceOnUse"
       id="clipPath150-3"><path
         d="M 324,120 H 676 V 621 H 324 Z"
         transform="translate(-474.3938,-505.59001)"
         id="path150-3" /></clipPath><clipPath
       clipPathUnits="userSpaceOnUse"
       id="clipPath151-8"><path
         d="M 324,120 H 676 V 621 H 324 Z"
         transform="translate(-483.22975,-505.59001)"
         id="path151-6" /></clipPath><clipPath
       clipPathUnits="userSpaceOnUse"
       id="clipPath152-0"><path
         d="M 324,120 H 676 V 621 H 324 Z"
         transform="translate(-496.29956,-505.59001)"
         id="path152-4" /></clipPath><clipPath
       clipPathUnits="userSpaceOnUse"
       id="clipPath153-8"><path
         d="M 324,120 H 676 V 621 H 324 Z"
         transform="translate(-502.95483,-505.59001)"
         id="path153-8" /></clipPath><clipPath
       clipPathUnits="userSpaceOnUse"
       id="clipPath154-8"><path
         d="M 324,120 H 676 V 621 H 324 Z"
         transform="translate(-517.51148,-505.59001)"
         id="path154-9" /></clipPath><clipPath
       clipPathUnits="userSpaceOnUse"
       id="clipPath155-7"><path
         d="M 324,120 H 676 V 621 H 324 Z"
         transform="translate(-531.4026,-505.59001)"
         id="path155-7" /></clipPath><clipPath
       clipPathUnits="userSpaceOnUse"
       id="clipPath156-6"><path
         d="M 324,120 H 676 V 621 H 324 Z"
         transform="translate(-545.78932,-505.59001)"
         id="path156-4" /></clipPath><mask
       maskUnits="userSpaceOnUse"
       id="mask7"><g
         id="g8"
         transform="matrix(13.669236,0,0,13.669236,-886.37586,31.703725)"><path
           id="path7"
           d="m -176.5,-251 h 353 v 502 h -353 z"
           style="fill:#ffffff;fill-opacity:1;fill-rule:nonzero;stroke:none"
           transform="matrix(0.21994256,0,0,0.22075792,182.43739,52.980514)"
           clip-path="url(#clipPath262-9)" /></g></mask><clipPath
       clipPathUnits="userSpaceOnUse"
       id="clipPath8"><path
         d="M 1078.2694,3.1325342e-8 H 2136.5386 V 1511.8134 H 1078.2694 Z"
         id="path8"
         style="stroke-width:1.33333" /></clipPath><mask
       maskUnits="userSpaceOnUse"
       id="mask9"><g
         id="g10"
         transform="matrix(12.350752,0,0,12.350752,-639.23723,168.39044)"><path
           id="path9"
           d="m -176.5,-251 h 353 v 502 h -353 z"
           style="fill:#ffffff;fill-opacity:1;fill-rule:nonzero;stroke:none"
           transform="matrix(0.24342216,0,0,0.24432456,181.90318,47.569284)"
           clip-path="url(#clipPath88-0)" /></g></mask><clipPath
       clipPathUnits="userSpaceOnUse"
       id="clipPath10"><path
         d="M 1078.2693,-1.0806908e-6 H 2136.5386 V 1511.8134 H 1078.2693 Z"
         id="path10"
         style="stroke-width:1.33334" /></clipPath><mask
       maskUnits="userSpaceOnUse"
       id="mask11"><g
         id="g13"
         transform="matrix(3.4495388,0,0,3.4367982,-730.30313,-159.43384)"><g
           id="g12"><path
             id="path11"
             d="m -176.5,-251 h 353 v 502 h -353 z"
             style="fill:#ffffff;fill-opacity:1;fill-rule:nonzero;stroke:none"
             transform="matrix(0.28989383,0,0,0.2909685,182.27075,58.200636)"
             clip-path="url(#clipPath49-0)" /></g></g></mask><mask
       maskUnits="userSpaceOnUse"
       id="mask13"><g
         id="g15"
         transform="matrix(3.4495388,0,0,3.4367982,-719.94378,-159.43384)"><g
           id="g14"><path
             id="path13"
             d="m -176.5,-251 h 353 v 502 h -353 z"
             style="fill:#ffffff;fill-opacity:1;fill-rule:nonzero;stroke:none"
             transform="matrix(0.28989383,0,0,0.2909685,182.27075,58.200636)"
             clip-path="url(#clipPath49-0)" /></g></g></mask><mask
       maskUnits="userSpaceOnUse"
       id="mask15"><g
         id="g17"
         transform="matrix(3.4495388,0,0,3.4367982,-702.87736,-159.43384)"><g
           id="g16"><path
             id="path15"
             d="m -176.5,-251 h 353 v 502 h -353 z"
             style="fill:#ffffff;fill-opacity:1;fill-rule:nonzero;stroke:none"
             transform="matrix(0.28989383,0,0,0.2909685,182.27075,58.200636)"
             clip-path="url(#clipPath49-0)" /></g></g></mask><mask
       maskUnits="userSpaceOnUse"
       id="mask17"><g
         id="g19"
         transform="matrix(3.4495388,0,0,3.4367982,-692.11956,-159.43384)"><g
           id="g18"><path
             id="path17"
             d="m -176.5,-251 h 353 v 502 h -353 z"
             style="fill:#ffffff;fill-opacity:1;fill-rule:nonzero;stroke:none"
             transform="matrix(0.28989383,0,0,0.2909685,182.27075,58.200636)"
             clip-path="url(#clipPath49-0)" /></g></g></mask><mask
       maskUnits="userSpaceOnUse"
       id="mask19"><g
         id="g21"
         transform="matrix(3.4495388,0,0,3.4367982,-682.05901,-159.43384)"><g
           id="g20"><path
             id="path19"
             d="m -176.5,-251 h 353 v 502 h -353 z"
             style="fill:#ffffff;fill-opacity:1;fill-rule:nonzero;stroke:none"
             transform="matrix(0.28989383,0,0,0.2909685,182.27075,58.200636)"
             clip-path="url(#clipPath49-0)" /></g></g></mask><mask
       maskUnits="userSpaceOnUse"
       id="mask21"><g
         id="g23"
         transform="matrix(3.4495388,0,0,3.4367982,-665.77288,-159.43384)"><g
           id="g22"><path
             id="path21"
             d="m -176.5,-251 h 353 v 502 h -353 z"
             style="fill:#ffffff;fill-opacity:1;fill-rule:nonzero;stroke:none"
             transform="matrix(0.28989383,0,0,0.2909685,182.27075,58.200636)"
             clip-path="url(#clipPath49-0)" /></g></g></mask><mask
       maskUnits="userSpaceOnUse"
       id="mask23"><g
         id="g25"
         transform="matrix(3.4495388,0,0,3.4367982,-657.97016,-159.43384)"><g
           id="g24"><path
             id="path23"
             d="m -176.5,-251 h 353 v 502 h -353 z"
             style="fill:#ffffff;fill-opacity:1;fill-rule:nonzero;stroke:none"
             transform="matrix(0.28989383,0,0,0.2909685,182.27075,58.200636)"
             clip-path="url(#clipPath49-0)" /></g></g></mask><mask
       maskUnits="userSpaceOnUse"
       id="mask25"><g
         id="g27"
         transform="matrix(3.4495388,0,0,3.4367982,-639.12737,-159.43384)"><g
           id="g26"><path
             id="path25"
             d="m -176.5,-251 h 353 v 502 h -353 z"
             style="fill:#ffffff;fill-opacity:1;fill-rule:nonzero;stroke:none"
             transform="matrix(0.28989383,0,0,0.2909685,182.27075,58.200636)"
             clip-path="url(#clipPath49-0)" /></g></g></mask><mask
       maskUnits="userSpaceOnUse"
       id="mask27"><g
         id="g29"
         transform="matrix(3.4495388,0,0,3.4367982,-631.32465,-159.43384)"><g
           id="g28"><path
             id="path27"
             d="m -176.5,-251 h 353 v 502 h -353 z"
             style="fill:#ffffff;fill-opacity:1;fill-rule:nonzero;stroke:none"
             transform="matrix(0.28989383,0,0,0.2909685,182.27075,58.200636)"
             clip-path="url(#clipPath49-0)" /></g></g></mask><mask
       maskUnits="userSpaceOnUse"
       id="mask29"><g
         id="g31"
         transform="matrix(3.4495388,0,0,3.4367982,-620.96527,-159.43384)"><g
           id="g30"><path
             id="path29"
             d="m -176.5,-251 h 353 v 502 h -353 z"
             style="fill:#ffffff;fill-opacity:1;fill-rule:nonzero;stroke:none"
             transform="matrix(0.28989383,0,0,0.2909685,182.27075,58.200636)"
             clip-path="url(#clipPath49-0)" /></g></g></mask><mask
       maskUnits="userSpaceOnUse"
       id="mask31"><g
         id="g33"
         transform="matrix(3.4495388,0,0,3.4367982,-605.02774,-159.43384)"><g
           id="g32"><path
             id="path31"
             d="m -176.5,-251 h 353 v 502 h -353 z"
             style="fill:#ffffff;fill-opacity:1;fill-rule:nonzero;stroke:none"
             transform="matrix(0.28989383,0,0,0.2909685,182.27075,58.200636)"
             clip-path="url(#clipPath49-0)" /></g></g></mask><mask
       maskUnits="userSpaceOnUse"
       id="mask33"><g
         id="g35"
         transform="matrix(3.4495388,0,0,3.4367982,-588.55899,-159.43384)"><g
           id="g34"><path
             id="path33"
             d="m -176.5,-251 h 353 v 502 h -353 z"
             style="fill:#ffffff;fill-opacity:1;fill-rule:nonzero;stroke:none"
             transform="matrix(0.28989383,0,0,0.2909685,182.27075,58.200636)"
             clip-path="url(#clipPath49-0)" /></g></g></mask><mask
       maskUnits="userSpaceOnUse"
       id="mask35"><g
         id="g37"
         transform="matrix(3.4495388,0,0,3.4367982,-580.75627,-159.43384)"><g
           id="g36"><path
             id="path35"
             d="m -176.5,-251 h 353 v 502 h -353 z"
             style="fill:#ffffff;fill-opacity:1;fill-rule:nonzero;stroke:none"
             transform="matrix(0.28989383,0,0,0.2909685,182.27075,58.200636)"
             clip-path="url(#clipPath49-0)" /></g></g></mask><mask
       maskUnits="userSpaceOnUse"
       id="mask37"><g
         id="g39"
         transform="matrix(3.4495388,0,0,3.4367982,-564.47014,-159.43384)"><g
           id="g38"><path
             id="path37"
             d="m -176.5,-251 h 353 v 502 h -353 z"
             style="fill:#ffffff;fill-opacity:1;fill-rule:nonzero;stroke:none"
             transform="matrix(0.28989383,0,0,0.2909685,182.27075,58.200636)"
             clip-path="url(#clipPath49-0)" /></g></g></mask><mask
       maskUnits="userSpaceOnUse"
       id="mask39"><g
         id="g41"
         transform="matrix(3.4495388,0,0,3.4367982,-554.40959,-159.43384)"><g
           id="g40"><path
             id="path39"
             d="m -176.5,-251 h 353 v 502 h -353 z"
             style="fill:#ffffff;fill-opacity:1;fill-rule:nonzero;stroke:none"
             transform="matrix(0.28989383,0,0,0.2909685,182.27075,58.200636)"
             clip-path="url(#clipPath49-0)" /></g></g></mask><mask
       maskUnits="userSpaceOnUse"
       id="mask41"><g
         id="g43"
         transform="matrix(3.4495388,0,0,3.4367982,-537.94084,-159.43384)"><g
           id="g42"><path
             id="path41"
             d="m -176.5,-251 h 353 v 502 h -353 z"
             style="fill:#ffffff;fill-opacity:1;fill-rule:nonzero;stroke:none"
             transform="matrix(0.28989383,0,0,0.2909685,182.27075,58.200636)"
             clip-path="url(#clipPath49-0)" /></g></g></mask><mask
       maskUnits="userSpaceOnUse"
       id="mask43"><g
         id="g45"
         transform="matrix(3.4495388,0,0,3.4367982,-520.87445,-159.43384)"><g
           id="g44"><path
             id="path43"
             d="m -176.5,-251 h 353 v 502 h -353 z"
             style="fill:#ffffff;fill-opacity:1;fill-rule:nonzero;stroke:none"
             transform="matrix(0.28989383,0,0,0.2909685,182.27075,58.200636)"
             clip-path="url(#clipPath49-0)" /></g></g></mask><mask
       maskUnits="userSpaceOnUse"
       id="mask45"><g
         id="g47"
         transform="matrix(3.4495388,0,0,3.4367982,-501.60005,-159.43384)"><g
           id="g46"><path
             id="path45"
             d="m -176.5,-251 h 353 v 502 h -353 z"
             style="fill:#ffffff;fill-opacity:1;fill-rule:nonzero;stroke:none"
             transform="matrix(0.28989383,0,0,0.2909685,182.27075,58.200636)"
             clip-path="url(#clipPath49-0)" /></g></g></mask><clipPath
       clipPathUnits="userSpaceOnUse"
       id="clipPath47"><path
         d="M -277.55309,-209.91002 H 74.446949 v 500.9999 H -277.55309 Z"
         id="path47"
         style="stroke-width:0.44267" /></clipPath><clipPath
       clipPathUnits="userSpaceOnUse"
       id="clipPath48"><path
         d="M -267.19375,-209.91002 H 84.806293 v 500.9999 H -267.19375 Z"
         id="path48"
         style="stroke-width:0.44267" /></clipPath><clipPath
       clipPathUnits="userSpaceOnUse"
       id="clipPath49"><path
         d="m -250.12733,-209.91002 h 352.00004 v 500.9999 h -352.00004 z"
         id="path49"
         style="stroke-width:0.44267" /></clipPath><clipPath
       clipPathUnits="userSpaceOnUse"
       id="clipPath50"><path
         d="m -239.36953,-209.91002 h 352.00004 v 500.9999 h -352.00004 z"
         id="path50"
         style="stroke-width:0.44267" /></clipPath><clipPath
       clipPathUnits="userSpaceOnUse"
       id="clipPath51"><path
         d="m -229.30898,-209.91002 h 352.00004 v 500.9999 h -352.00004 z"
         id="path51"
         style="stroke-width:0.44267" /></clipPath><clipPath
       clipPathUnits="userSpaceOnUse"
       id="clipPath52"><path
         d="m -213.02285,-209.91002 h 352.00004 v 500.9999 h -352.00004 z"
         id="path52"
         style="stroke-width:0.44267" /></clipPath><clipPath
       clipPathUnits="userSpaceOnUse"
       id="clipPath53"><path
         d="m -205.22013,-209.91002 h 352.00004 v 500.9999 h -352.00004 z"
         id="path53"
         style="stroke-width:0.44267" /></clipPath><clipPath
       clipPathUnits="userSpaceOnUse"
       id="clipPath54"><path
         d="m -186.37733,-209.91002 h 352.00004 v 500.9999 h -352.00004 z"
         id="path54"
         style="stroke-width:0.44267" /></clipPath><clipPath
       clipPathUnits="userSpaceOnUse"
       id="clipPath55"><path
         d="m -168.21524,-209.91002 h 352.00005 v 500.9999 h -352.00005 z"
         id="path55"
         style="stroke-width:0.44267" /></clipPath><clipPath
       clipPathUnits="userSpaceOnUse"
       id="clipPath56"><path
         d="m -152.27771,-209.91002 h 352.00004 v 500.9999 h -352.00004 z"
         id="path56"
         style="stroke-width:0.44267" /></clipPath><clipPath
       clipPathUnits="userSpaceOnUse"
       id="clipPath57"><path
         d="m -135.80896,-209.91002 h 352.00004 v 500.9999 h -352.00004 z"
         id="path57"
         style="stroke-width:0.44267" /></clipPath><clipPath
       clipPathUnits="userSpaceOnUse"
       id="clipPath58"><path
         d="M -128.00624,-209.91002 H 223.9938 v 500.9999 h -352.00004 z"
         id="path58"
         style="stroke-width:0.44267" /></clipPath><clipPath
       clipPathUnits="userSpaceOnUse"
       id="clipPath59"><path
         d="m -111.7201,-209.91002 h 352.00004 v 500.9999 H -111.7201 Z"
         id="path59"
         style="stroke-width:0.44267" /></clipPath><clipPath
       clipPathUnits="userSpaceOnUse"
       id="clipPath60"><path
         d="m -101.65956,-209.91002 h 352.00004 v 500.9999 h -352.00004 z"
         id="path60"
         style="stroke-width:0.44267" /></clipPath><clipPath
       clipPathUnits="userSpaceOnUse"
       id="clipPath61"><path
         d="M -85.190805,-209.91002 H 266.80924 v 500.9999 H -85.190805 Z"
         id="path61"
         style="stroke-width:0.44267" /></clipPath><clipPath
       clipPathUnits="userSpaceOnUse"
       id="clipPath62"><path
         d="M -68.124419,-209.91002 H 283.87562 v 500.9999 H -68.124419 Z"
         id="path62"
         style="stroke-width:0.44267" /></clipPath><clipPath
       clipPathUnits="userSpaceOnUse"
       id="clipPath63"><path
         d="M -48.850018,-209.91002 H 303.15002 v 500.9999 H -48.850018 Z"
         id="path63"
         style="stroke-width:0.44267" /></clipPath><rect
       x="-8.6937704"
       y="-204.3036"
       width="211.25862"
       height="104.32524"
       id="rect64-4" /></defs><g
     inkscape:label="Layer 1"
     inkscape:groupmode="layer"
     id="layer1"><path
       d=""
       style="fill:#f7941d;fill-opacity:1;fill-rule:nonzero;stroke:none"
       aria-label=" "
       transform="matrix(0.28989383,0,0,0.2909685,183.01712,46.390224)"
       clip-path="url(#clipPath59-7)"
       id="path77"
       mask="url(#mask27)" /><rect
       style="fill:#000000;stroke:#000000;stroke-width:0.517968;stroke-linejoin:round"
       id="rect2"
       width="91.18531"
       height="91.094704"
       x="0.18185784"
       y="-0.27818748" /><g
       id="g5"
       transform="matrix(0.23541499,0,0,0.23541499,20.885674,-23.307292)"><g
         id="g4"><path
           style="fill:#ff8900;fill-opacity:1;fill-rule:evenodd;stroke:none;stroke-width:0.86393px;stroke-linecap:butt;stroke-linejoin:miter;stroke-opacity:1"
           d="M 48.667697,249.17039 H 160.50906 V 141.03791 Z"
           id="path3" /><path
           style="fill:#e43206;fill-opacity:1;fill-rule:evenodd;stroke:none;stroke-width:0.86393px;stroke-linecap:butt;stroke-linejoin:miter;stroke-opacity:1"
           d="M 160.34192,141.18811 H 48.500556 V 249.3206 Z"
           id="path3-9" /></g><path
         style="fill:#ffffff;fill-opacity:1;stroke:#000000;stroke-width:1.328;stroke-dasharray:none;stroke-opacity:1"
         d="m 57.685115,209.6753 -0.105658,-0.2771 0.05736,-17.0697 0.05735,-17.0697 5.935289,-0.0591 5.93529,-0.0591 1.435738,0.33298 1.435713,0.33296 1.358134,0.68557 1.358161,0.68562 1.082306,1.01237 1.082308,1.01238 0.679609,1.38045 0.679585,1.38045 0.241286,1.55954 0.241288,1.55953 -0.242579,1.46351 -0.242579,1.46349 -0.554058,1.21023 -0.554083,1.21026 -1.068512,1.14389 -1.068486,1.1439 -1.163837,0.65784 -1.163864,0.6578 0.157843,0.25601 0.157846,0.25602 5.396731,7.38559 5.396732,7.3856 0.121939,0.31793 0.121939,0.31794 -3.071896,-0.005 -3.071871,-0.005 -5.623708,-7.5398 -5.623708,-7.53978 -2.246093,0.0628 -2.246068,0.0628 -0.05838,7.48186 -0.05838,7.48184 h -2.331681 -2.331707 z m 12.592193,-20.02336 1.023923,-0.34889 0.878272,-0.95282 0.878297,-0.95283 0.250071,-1.20489 0.250072,-1.20489 -0.253688,-1.18364 -0.253946,-1.18362 -0.874578,-0.94879 -0.874578,-0.94881 -1.023922,-0.34887 -1.023897,-0.34889 h -3.396628 -3.396627 v 4.98791 4.98789 h 3.396627 3.396628 z m 16.665564,19.9125 0.144927,-0.38794 6.899768,-17.01427 6.899793,-17.01429 h 2.37697 2.37697 l 0.1116,0.27711 0.11161,0.2771 6.80832,16.73718 6.80829,16.73717 0.11264,0.38794 0.11263,0.38797 h -2.64328 -2.64328 l -1.65001,-4.1001 -1.65,-4.10011 -7.85686,0.0542 -7.856859,0.0542 -1.651168,4.04573 -1.651166,4.04576 h -2.652898 -2.652925 z m 22.071858,-12.85768 6.2e-4,-0.16637 -2.82731,-7.25973 -2.8273,-7.25974 -0.11083,0.005 -0.11083,0.005 -2.71224,7.03286 -2.712211,7.03292 -0.137953,0.38794 -0.137952,0.38795 h 5.787496 5.78752 z m 11.89623,13.09787 -0.14777,-0.14777 v -17.25445 -17.25444 h 2.43853 2.43853 v 17.40224 17.40223 h -2.29074 -2.29073 z m 12.04485,-17.25445 v -17.40224 h 2.43852 2.43853 v 14.96372 14.96367 h 8.20235 8.20231 v 2.43856 2.43852 h -10.64084 -10.64087 z"
         id="path1-2" /></g><text
       xml:space="preserve"
       transform="matrix(0.27725182,0,0,0.28459934,18.642591,109.95884)"
       id="text64-8"
       style="font-style:normal;font-variant:normal;font-weight:normal;font-stretch:normal;font-size:21.3333px;font-family:Roboto;-inkscape-font-specification:Roboto;text-align:center;writing-mode:lr-tb;direction:ltr;white-space:pre;shape-inside:url(#rect64-4);display:inline;fill:#ffffff;fill-opacity:1;stroke:none;stroke-width:0.583;stroke-linejoin:round"><tspan
         x="3.4200696"
         y="-184.68633"
         id="tspan5">efficient low friction </tspan><tspan
         x="-5.4236664"
         y="-158.0197"
         id="tspan6">transport and storage </tspan><tspan
         x="13.086721"
         y="-131.35308"
         id="tspan7">for your container </tspan><tspan
         x="47.815833"
         y="-104.68645"
         id="tspan8">workloads</tspan></text><text
       xml:space="preserve"
       transform="matrix(0.38655582,0,0,0.44616743,-21.815085,-23.739114)"
       id="text65"
       style="font-style:normal;font-variant:normal;font-weight:normal;font-stretch:normal;font-size:21.3333px;font-family:Roboto;-inkscape-font-specification:Roboto;text-align:center;writing-mode:lr-tb;direction:ltr;white-space:pre;shape-inside:url(#rect65);display:inline;fill:#ffffff;fill-opacity:1;stroke:none;stroke-width:0.583;stroke-linejoin:round"><tspan
         x="85.195455"
         y="159.58516"
         id="tspan10"><tspan
           style="fill:#f7941d"
           id="tspan9">Container Platform</tspan></tspan></text></g></svg>
