<?xml version="1.0" encoding="UTF-8" standalone="no"?>
<!-- Created with Inkscape (http://www.inkscape.org/) -->

<svg
   width="100mm"
   height="100mm"
   viewBox="0 0 100 100"
   version="1.1"
   id="svg1"
   inkscape:version="1.4.2 (ebf0e940d0, 2025-05-08)"
   sodipodi:docname="railcp_front.svg"
   xmlns:inkscape="http://www.inkscape.org/namespaces/inkscape"
   xmlns:sodipodi="http://sodipodi.sourceforge.net/DTD/sodipodi-0.dtd"
   xmlns="http://www.w3.org/2000/svg"
   xmlns:svg="http://www.w3.org/2000/svg">
  <sodipodi:namedview
     id="namedview1"
     pagecolor="#ffffff"
     bordercolor="#000000"
     borderopacity="0.25"
     inkscape:showpageshadow="2"
     inkscape:pageopacity="0.0"
     inkscape:pagecheckerboard="0"
     inkscape:deskcolor="#d1d1d1"
     inkscape:document-units="mm"
     inkscape:zoom="0.81334877"
     inkscape:cx="397.12361"
     inkscape:cy="364.54226"
     inkscape:window-width="1920"
     inkscape:window-height="1156"
     inkscape:window-x="0"
     inkscape:window-y="0"
     inkscape:window-maximized="1"
     inkscape:current-layer="layer1" />
  <defs
     id="defs1">
    <clipPath
       clipPathUnits="userSpaceOnUse"
       id="clipPath40">
      <path
         d="M 324,150 H 676 V 651 H 324 Z"
         transform="translate(-499.99999,-400.5)"
         id="path40" />
    </clipPath>
    <clipPath
       clipPathUnits="userSpaceOnUse"
       id="clipPath41">
      <path
         d="M 324,150 H 676 V 651 H 324 Z"
         transform="matrix(0.52058931,0,0,0.5205893,-155.78873,21.136961)"
         id="path41" />
    </clipPath>
    <clipPath
       clipPathUnits="userSpaceOnUse"
       id="clipPath42">
      <path
         d="M 324,150 H 676 V 651 H 324 Z"
         transform="matrix(0.52058931,0,0,0.5205893,-155.79058,21.136616)"
         id="path42" />
    </clipPath>
    <clipPath
       clipPathUnits="userSpaceOnUse"
       id="clipPath43">
      <path
         d="M 324,150 H 676 V 651 H 324 Z"
         transform="matrix(0.52058931,0,0,0.5205893,-155.78821,21.144825)"
         id="path43" />
    </clipPath>
    <clipPath
       clipPathUnits="userSpaceOnUse"
       id="clipPath86">
      <path
         d="M 0,0 H 793.702 V 1133.86 H 0 Z"
         transform="matrix(1.3333333,0,0,1.3333333,1078.2693,0)"
         id="path86" />
    </clipPath>
    <mask
       maskUnits="userSpaceOnUse"
       x="0"
       y="0"
       width="1"
       height="1"
       id="mask48">
      <path
         id="path48"
         d="m -176.5,-251 h 353 v 502 h -353 z"
         style="fill:#ffffff;fill-opacity:1;fill-rule:nonzero;stroke:none"
         transform="matrix(3.0064467,0,0,3.017592,1607.4038,755.90686)"
         clip-path="url(#clipPath49)" />
    </mask>
    <clipPath
       clipPathUnits="userSpaceOnUse"
       id="clipPath49">
      <path
         d="M 324,120 H 676 V 621 H 324 Z"
         transform="translate(-499.99998,-370.5)"
         id="path49" />
    </clipPath>
    <clipPath
       clipPathUnits="userSpaceOnUse"
       id="clipPath50">
      <path
         d="M 324,120 H 676 V 621 H 324 Z"
         transform="translate(-372.85001,-329.91)"
         id="path50" />
    </clipPath>
    <clipPath
       clipPathUnits="userSpaceOnUse"
       id="clipPath51">
      <path
         d="M 324,120 H 676 V 621 H 324 Z"
         transform="translate(-392.12443,-329.91)"
         id="path51" />
    </clipPath>
    <clipPath
       clipPathUnits="userSpaceOnUse"
       id="clipPath52">
      <path
         d="M 324,120 H 676 V 621 H 324 Z"
         transform="translate(-409.19082,-329.91)"
         id="path52" />
    </clipPath>
    <clipPath
       clipPathUnits="userSpaceOnUse"
       id="clipPath53">
      <path
         d="M 324,120 H 676 V 621 H 324 Z"
         transform="translate(-425.65956,-329.91)"
         id="path53" />
    </clipPath>
    <clipPath
       clipPathUnits="userSpaceOnUse"
       id="clipPath54">
      <path
         d="M 324,120 H 676 V 621 H 324 Z"
         transform="translate(-435.72011,-329.91)"
         id="path54" />
    </clipPath>
    <clipPath
       clipPathUnits="userSpaceOnUse"
       id="clipPath55">
      <path
         d="M 324,120 H 676 V 621 H 324 Z"
         transform="translate(-452.00625,-329.91)"
         id="path55" />
    </clipPath>
    <clipPath
       clipPathUnits="userSpaceOnUse"
       id="clipPath56">
      <path
         d="M 324,120 H 676 V 621 H 324 Z"
         transform="translate(-459.80898,-329.91)"
         id="path56" />
    </clipPath>
    <clipPath
       clipPathUnits="userSpaceOnUse"
       id="clipPath57">
      <path
         d="M 324,120 H 676 V 621 H 324 Z"
         transform="translate(-476.27772,-329.91)"
         id="path57" />
    </clipPath>
    <clipPath
       clipPathUnits="userSpaceOnUse"
       id="clipPath58">
      <path
         d="M 324,120 H 676 V 621 H 324 Z"
         transform="translate(-492.21524,-329.91)"
         id="path58" />
    </clipPath>
    <clipPath
       clipPathUnits="userSpaceOnUse"
       id="clipPath59">
      <path
         d="M 324,120 H 676 V 621 H 324 Z"
         transform="translate(-502.57461,-329.91)"
         id="path59" />
    </clipPath>
    <clipPath
       clipPathUnits="userSpaceOnUse"
       id="clipPath60">
      <path
         d="M 324,120 H 676 V 621 H 324 Z"
         transform="translate(-510.37735,-329.91)"
         id="path60" />
    </clipPath>
    <clipPath
       clipPathUnits="userSpaceOnUse"
       id="clipPath61">
      <path
         d="M 324,120 H 676 V 621 H 324 Z"
         transform="translate(-529.22012,-329.91)"
         id="path61" />
    </clipPath>
    <clipPath
       clipPathUnits="userSpaceOnUse"
       id="clipPath62">
      <path
         d="M 324,120 H 676 V 621 H 324 Z"
         transform="translate(-537.02285,-329.91)"
         id="path62" />
    </clipPath>
    <clipPath
       clipPathUnits="userSpaceOnUse"
       id="clipPath63">
      <path
         d="M 324,120 H 676 V 621 H 324 Z"
         transform="translate(-553.30899,-329.91)"
         id="path63" />
    </clipPath>
    <clipPath
       clipPathUnits="userSpaceOnUse"
       id="clipPath64">
      <path
         d="M 324,120 H 676 V 621 H 324 Z"
         transform="translate(-563.36954,-329.91)"
         id="path64" />
    </clipPath>
    <clipPath
       clipPathUnits="userSpaceOnUse"
       id="clipPath65">
      <path
         d="M 324,120 H 676 V 621 H 324 Z"
         transform="translate(-574.12735,-329.91)"
         id="path65" />
    </clipPath>
    <clipPath
       clipPathUnits="userSpaceOnUse"
       id="clipPath66">
      <path
         d="M 324,120 H 676 V 621 H 324 Z"
         transform="translate(-591.19375,-329.91)"
         id="path66" />
    </clipPath>
    <clipPath
       clipPathUnits="userSpaceOnUse"
       id="clipPath67">
      <path
         d="M 324,120 H 676 V 621 H 324 Z"
         transform="translate(-601.55312,-329.91)"
         id="path67" />
    </clipPath>
    <clipPath
       clipPathUnits="userSpaceOnUse"
       id="clipPath269">
      <path
         d="M 0,0 H 793.702 V 1133.86 H 0 Z"
         transform="matrix(1.3333333,0,0,1.3333333,1078.2693,0)"
         id="path269" />
    </clipPath>
    <mask
       maskUnits="userSpaceOnUse"
       x="0"
       y="0"
       width="1"
       height="1"
       id="mask260">
      <path
         id="path261"
         d="m -176.5,-251 h 353 v 502 h -353 z"
         style="fill:#ffffff;fill-opacity:1;fill-rule:nonzero;stroke:none"
         transform="matrix(3.0064467,0,0,3.017592,1607.4038,755.90686)"
         clip-path="url(#clipPath262)" />
    </mask>
    <clipPath
       clipPathUnits="userSpaceOnUse"
       id="clipPath262">
      <path
         d="M 324,120 H 676 V 621 H 324 Z"
         transform="translate(-499.99998,-370.5)"
         id="path262" />
    </clipPath>
    <clipPath
       clipPathUnits="userSpaceOnUse"
       id="clipPath263">
      <path
         d="M 324,120 H 676 V 621 H 324 Z"
         transform="matrix(0.98911968,0,0,0.98911969,-390.05393,-37.950445)"
         id="path263" />
    </clipPath>
    <clipPath
       clipPathUnits="userSpaceOnUse"
       id="clipPath264">
      <path
         d="M 324,120 H 676 V 621 H 324 Z"
         transform="matrix(0.98911968,0,0,0.98911969,-390.05577,-37.950793)"
         id="path264" />
    </clipPath>
    <clipPath
       clipPathUnits="userSpaceOnUse"
       id="clipPath265">
      <path
         d="M 324,120 H 676 V 621 H 324 Z"
         transform="matrix(0.98911968,0,0,0.98911969,-390.0534,-37.942582)"
         id="path265" />
    </clipPath>
    <clipPath
       clipPathUnits="userSpaceOnUse"
       id="clipPath225">
      <path
         d="M 0,0 H 793.702 V 1133.86 H 0 Z"
         transform="matrix(1.3333333,0,0,1.3333333,1078.2693,0)"
         id="path225" />
    </clipPath>
    <mask
       maskUnits="userSpaceOnUse"
       x="0"
       y="0"
       width="1"
       height="1"
       id="mask86">
      <path
         id="path87"
         d="m -176.5,-251 h 353 v 502 h -353 z"
         style="fill:#ffffff;fill-opacity:1;fill-rule:nonzero;stroke:none"
         transform="matrix(3.0064467,0,0,3.017592,1607.4038,755.90686)"
         clip-path="url(#clipPath88)" />
    </mask>
    <clipPath
       clipPathUnits="userSpaceOnUse"
       id="clipPath88">
      <path
         d="M 324,120 H 676 V 621 H 324 Z"
         transform="translate(-499.99998,-370.5)"
         id="path88" />
    </clipPath>
    <clipPath
       clipPathUnits="userSpaceOnUse"
       id="clipPath89">
      <path
         d="M 324,120 H 676 V 621 H 324 Z"
         transform="translate(-385.73,-407.28)"
         id="path89" />
    </clipPath>
    <clipPath
       clipPathUnits="userSpaceOnUse"
       id="clipPath90">
      <path
         d="M 324,120 H 676 V 621 H 324 Z"
         transform="translate(-399.32375,-407.28)"
         id="path90" />
    </clipPath>
    <clipPath
       clipPathUnits="userSpaceOnUse"
       id="clipPath91">
      <path
         d="M 324,120 H 676 V 621 H 324 Z"
         transform="translate(-420.91798,-407.28)"
         id="path91" />
    </clipPath>
    <clipPath
       clipPathUnits="userSpaceOnUse"
       id="clipPath92">
      <path
         d="M 324,120 H 676 V 621 H 324 Z"
         transform="translate(-434.3135,-407.28)"
         id="path92" />
    </clipPath>
    <clipPath
       clipPathUnits="userSpaceOnUse"
       id="clipPath93">
      <path
         d="M 324,120 H 676 V 621 H 324 Z"
         transform="translate(-440.96876,-407.28)"
         id="path93" />
    </clipPath>
    <clipPath
       clipPathUnits="userSpaceOnUse"
       id="clipPath94">
      <path
         d="M 324,120 H 676 V 621 H 324 Z"
         transform="translate(-454.56252,-407.28)"
         id="path94" />
    </clipPath>
    <clipPath
       clipPathUnits="userSpaceOnUse"
       id="clipPath95">
      <path
         d="M 324,120 H 676 V 621 H 324 Z"
         transform="translate(-468.6094,-407.28)"
         id="path95" />
    </clipPath>
    <clipPath
       clipPathUnits="userSpaceOnUse"
       id="clipPath96">
      <path
         d="M 324,120 H 676 V 621 H 324 Z"
         transform="translate(-477.19043,-407.28)"
         id="path96" />
    </clipPath>
    <clipPath
       clipPathUnits="userSpaceOnUse"
       id="clipPath97">
      <path
         d="M 324,120 H 676 V 621 H 324 Z"
         transform="translate(-483.84573,-407.28)"
         id="path97" />
    </clipPath>
    <clipPath
       clipPathUnits="userSpaceOnUse"
       id="clipPath98">
      <path
         d="M 324,120 H 676 V 621 H 324 Z"
         transform="translate(-490.50099,-407.28)"
         id="path98" />
    </clipPath>
    <clipPath
       clipPathUnits="userSpaceOnUse"
       id="clipPath99">
      <path
         d="M 324,120 H 676 V 621 H 324 Z"
         transform="translate(-505.05764,-407.28)"
         id="path99" />
    </clipPath>
    <clipPath
       clipPathUnits="userSpaceOnUse"
       id="clipPath100">
      <path
         d="M 324,120 H 676 V 621 H 324 Z"
         transform="translate(-523.90481,-407.28)"
         id="path100" />
    </clipPath>
    <clipPath
       clipPathUnits="userSpaceOnUse"
       id="clipPath101">
      <path
         d="M 324,120 H 676 V 621 H 324 Z"
         transform="translate(-530.56007,-407.28)"
         id="path101" />
    </clipPath>
    <clipPath
       clipPathUnits="userSpaceOnUse"
       id="clipPath102">
      <path
         d="M 324,120 H 676 V 621 H 324 Z"
         transform="translate(-539.73586,-407.28)"
         id="path102" />
    </clipPath>
    <clipPath
       clipPathUnits="userSpaceOnUse"
       id="clipPath103">
      <path
         d="M 324,120 H 676 V 621 H 324 Z"
         transform="translate(-548.5718,-407.28)"
         id="path103" />
    </clipPath>
    <clipPath
       clipPathUnits="userSpaceOnUse"
       id="clipPath104">
      <path
         d="M 324,120 H 676 V 621 H 324 Z"
         transform="translate(-555.22707,-407.28)"
         id="path104" />
    </clipPath>
    <clipPath
       clipPathUnits="userSpaceOnUse"
       id="clipPath105">
      <path
         d="M 324,120 H 676 V 621 H 324 Z"
         transform="translate(-568.62258,-407.28)"
         id="path105" />
    </clipPath>
    <clipPath
       clipPathUnits="userSpaceOnUse"
       id="clipPath106">
      <path
         d="M 324,120 H 676 V 621 H 324 Z"
         transform="translate(-577.20364,-407.28)"
         id="path106" />
    </clipPath>
    <clipPath
       clipPathUnits="userSpaceOnUse"
       id="clipPath107">
      <path
         d="M 324,120 H 676 V 621 H 324 Z"
         transform="translate(-583.85891,-407.28)"
         id="path107" />
    </clipPath>
    <clipPath
       clipPathUnits="userSpaceOnUse"
       id="clipPath108">
      <path
         d="M 324,120 H 676 V 621 H 324 Z"
         transform="translate(-598.41553,-407.28)"
         id="path108" />
    </clipPath>
    <clipPath
       clipPathUnits="userSpaceOnUse"
       id="clipPath109">
      <path
         d="M 324,120 H 676 V 621 H 324 Z"
         transform="translate(-376.62001,-440.05)"
         id="path109" />
    </clipPath>
    <clipPath
       clipPathUnits="userSpaceOnUse"
       id="clipPath110">
      <path
         d="M 324,120 H 676 V 621 H 324 Z"
         transform="translate(-385.20104,-440.05)"
         id="path110" />
    </clipPath>
    <clipPath
       clipPathUnits="userSpaceOnUse"
       id="clipPath111">
      <path
         d="M 324,120 H 676 V 621 H 324 Z"
         transform="translate(-393.47057,-440.05)"
         id="path111" />
    </clipPath>
    <clipPath
       clipPathUnits="userSpaceOnUse"
       id="clipPath112">
      <path
         d="M 324,120 H 676 V 621 H 324 Z"
         transform="translate(-407.36168,-440.05)"
         id="path112" />
    </clipPath>
    <clipPath
       clipPathUnits="userSpaceOnUse"
       id="clipPath113">
      <path
         d="M 324,120 H 676 V 621 H 324 Z"
         transform="translate(-421.40856,-440.05)"
         id="path113" />
    </clipPath>
    <clipPath
       clipPathUnits="userSpaceOnUse"
       id="clipPath114">
      <path
         d="M 324,120 H 676 V 621 H 324 Z"
         transform="translate(-434.63414,-440.05)"
         id="path114" />
    </clipPath>
    <clipPath
       clipPathUnits="userSpaceOnUse"
       id="clipPath115">
      <path
         d="M 324,120 H 676 V 621 H 324 Z"
         transform="translate(-448.93591,-440.05)"
         id="path115" />
    </clipPath>
    <clipPath
       clipPathUnits="userSpaceOnUse"
       id="clipPath116">
      <path
         d="M 324,120 H 676 V 621 H 324 Z"
         transform="translate(-463.49256,-440.05)"
         id="path116" />
    </clipPath>
    <clipPath
       clipPathUnits="userSpaceOnUse"
       id="clipPath117">
      <path
         d="M 324,120 H 676 V 621 H 324 Z"
         transform="translate(-473.03649,-440.05)"
         id="path117" />
    </clipPath>
    <clipPath
       clipPathUnits="userSpaceOnUse"
       id="clipPath118">
      <path
         d="M 324,120 H 676 V 621 H 324 Z"
         transform="translate(-481.61755,-440.05)"
         id="path118" />
    </clipPath>
    <clipPath
       clipPathUnits="userSpaceOnUse"
       id="clipPath119">
      <path
         d="M 324,120 H 676 V 621 H 324 Z"
         transform="translate(-488.27281,-440.05)"
         id="path119" />
    </clipPath>
    <clipPath
       clipPathUnits="userSpaceOnUse"
       id="clipPath120">
      <path
         d="M 324,120 H 676 V 621 H 324 Z"
         transform="translate(-502.16393,-440.05)"
         id="path120" />
    </clipPath>
    <clipPath
       clipPathUnits="userSpaceOnUse"
       id="clipPath121">
      <path
         d="M 324,120 H 676 V 621 H 324 Z"
         transform="translate(-516.21081,-440.05)"
         id="path121" />
    </clipPath>
    <clipPath
       clipPathUnits="userSpaceOnUse"
       id="clipPath122">
      <path
         d="M 324,120 H 676 V 621 H 324 Z"
         transform="translate(-530.59753,-440.05)"
         id="path122" />
    </clipPath>
    <clipPath
       clipPathUnits="userSpaceOnUse"
       id="clipPath123">
      <path
         d="M 324,120 H 676 V 621 H 324 Z"
         transform="translate(-537.25279,-440.05)"
         id="path123" />
    </clipPath>
    <clipPath
       clipPathUnits="userSpaceOnUse"
       id="clipPath124">
      <path
         d="M 324,120 H 676 V 621 H 324 Z"
         transform="translate(-550.47841,-440.05)"
         id="path124" />
    </clipPath>
    <clipPath
       clipPathUnits="userSpaceOnUse"
       id="clipPath125">
      <path
         d="M 324,120 H 676 V 621 H 324 Z"
         transform="translate(-558.77624,-440.05)"
         id="path125" />
    </clipPath>
    <clipPath
       clipPathUnits="userSpaceOnUse"
       id="clipPath126">
      <path
         d="M 324,120 H 676 V 621 H 324 Z"
         transform="translate(-573.33289,-440.05)"
         id="path126" />
    </clipPath>
    <clipPath
       clipPathUnits="userSpaceOnUse"
       id="clipPath127">
      <path
         d="M 324,120 H 676 V 621 H 324 Z"
         transform="translate(-581.60242,-440.05)"
         id="path127" />
    </clipPath>
    <clipPath
       clipPathUnits="userSpaceOnUse"
       id="clipPath128">
      <path
         d="M 324,120 H 676 V 621 H 324 Z"
         transform="translate(-595.49354,-440.05)"
         id="path128" />
    </clipPath>
    <clipPath
       clipPathUnits="userSpaceOnUse"
       id="clipPath129">
      <path
         d="M 324,120 H 676 V 621 H 324 Z"
         transform="translate(-609.79527,-440.05)"
         id="path129" />
    </clipPath>
    <clipPath
       clipPathUnits="userSpaceOnUse"
       id="clipPath130">
      <path
         d="M 324,120 H 676 V 621 H 324 Z"
         transform="translate(-398.62,-472.82001)"
         id="path130" />
    </clipPath>
    <clipPath
       clipPathUnits="userSpaceOnUse"
       id="clipPath131">
      <path
         d="M 324,120 H 676 V 621 H 324 Z"
         transform="translate(-407.79578,-472.82001)"
         id="path131" />
    </clipPath>
    <clipPath
       clipPathUnits="userSpaceOnUse"
       id="clipPath132">
      <path
         d="M 324,120 H 676 V 621 H 324 Z"
         transform="translate(-422.3524,-472.82001)"
         id="path132" />
    </clipPath>
    <clipPath
       clipPathUnits="userSpaceOnUse"
       id="clipPath133">
      <path
         d="M 324,120 H 676 V 621 H 324 Z"
         transform="translate(-431.18835,-472.82001)"
         id="path133" />
    </clipPath>
    <clipPath
       clipPathUnits="userSpaceOnUse"
       id="clipPath134">
      <path
         d="M 324,120 H 676 V 621 H 324 Z"
         transform="translate(-437.84361,-472.82001)"
         id="path134" />
    </clipPath>
    <clipPath
       clipPathUnits="userSpaceOnUse"
       id="clipPath135">
      <path
         d="M 324,120 H 676 V 621 H 324 Z"
         transform="translate(-449.70985,-472.82001)"
         id="path135" />
    </clipPath>
    <clipPath
       clipPathUnits="userSpaceOnUse"
       id="clipPath136">
      <path
         d="M 324,120 H 676 V 621 H 324 Z"
         transform="translate(-464.26647,-472.82001)"
         id="path136" />
    </clipPath>
    <clipPath
       clipPathUnits="userSpaceOnUse"
       id="clipPath137">
      <path
         d="M 324,120 H 676 V 621 H 324 Z"
         transform="translate(-478.28504,-472.82001)"
         id="path137" />
    </clipPath>
    <clipPath
       clipPathUnits="userSpaceOnUse"
       id="clipPath138">
      <path
         d="M 324,120 H 676 V 621 H 324 Z"
         transform="translate(-487.12099,-472.82001)"
         id="path138" />
    </clipPath>
    <clipPath
       clipPathUnits="userSpaceOnUse"
       id="clipPath139">
      <path
         d="M 324,120 H 676 V 621 H 324 Z"
         transform="translate(-493.77625,-472.82001)"
         id="path139" />
    </clipPath>
    <clipPath
       clipPathUnits="userSpaceOnUse"
       id="clipPath140">
      <path
         d="M 324,120 H 676 V 621 H 324 Z"
         transform="translate(-507.17177,-472.82001)"
         id="path140" />
    </clipPath>
    <clipPath
       clipPathUnits="userSpaceOnUse"
       id="clipPath141">
      <path
         d="M 324,120 H 676 V 621 H 324 Z"
         transform="translate(-521.72839,-472.82001)"
         id="path141" />
    </clipPath>
    <clipPath
       clipPathUnits="userSpaceOnUse"
       id="clipPath142">
      <path
         d="M 324,120 H 676 V 621 H 324 Z"
         transform="translate(-535.77527,-472.82001)"
         id="path142" />
    </clipPath>
    <clipPath
       clipPathUnits="userSpaceOnUse"
       id="clipPath143">
      <path
         d="M 324,120 H 676 V 621 H 324 Z"
         transform="translate(-544.35633,-472.82001)"
         id="path143" />
    </clipPath>
    <clipPath
       clipPathUnits="userSpaceOnUse"
       id="clipPath144">
      <path
         d="M 324,120 H 676 V 621 H 324 Z"
         transform="translate(-558.24744,-472.82001)"
         id="path144" />
    </clipPath>
    <clipPath
       clipPathUnits="userSpaceOnUse"
       id="clipPath145">
      <path
         d="M 324,120 H 676 V 621 H 324 Z"
         transform="translate(-564.90271,-472.82001)"
         id="path145" />
    </clipPath>
    <clipPath
       clipPathUnits="userSpaceOnUse"
       id="clipPath146">
      <path
         d="M 324,120 H 676 V 621 H 324 Z"
         transform="translate(-578.94959,-472.82001)"
         id="path146" />
    </clipPath>
    <clipPath
       clipPathUnits="userSpaceOnUse"
       id="clipPath147">
      <path
         d="M 324,120 H 676 V 621 H 324 Z"
         transform="translate(-592.54335,-472.82001)"
         id="path147" />
    </clipPath>
    <clipPath
       clipPathUnits="userSpaceOnUse"
       id="clipPath148">
      <path
         d="M 324,120 H 676 V 621 H 324 Z"
         transform="translate(-440.98999,-505.59001)"
         id="path148" />
    </clipPath>
    <clipPath
       clipPathUnits="userSpaceOnUse"
       id="clipPath149">
      <path
         d="M 324,120 H 676 V 621 H 324 Z"
         transform="translate(-459.83715,-505.59001)"
         id="path149" />
    </clipPath>
    <clipPath
       clipPathUnits="userSpaceOnUse"
       id="clipPath150">
      <path
         d="M 324,120 H 676 V 621 H 324 Z"
         transform="translate(-474.3938,-505.59001)"
         id="path150" />
    </clipPath>
    <clipPath
       clipPathUnits="userSpaceOnUse"
       id="clipPath151">
      <path
         d="M 324,120 H 676 V 621 H 324 Z"
         transform="translate(-483.22975,-505.59001)"
         id="path151" />
    </clipPath>
    <clipPath
       clipPathUnits="userSpaceOnUse"
       id="clipPath152">
      <path
         d="M 324,120 H 676 V 621 H 324 Z"
         transform="translate(-496.29956,-505.59001)"
         id="path152" />
    </clipPath>
    <clipPath
       clipPathUnits="userSpaceOnUse"
       id="clipPath153">
      <path
         d="M 324,120 H 676 V 621 H 324 Z"
         transform="translate(-502.95483,-505.59001)"
         id="path153" />
    </clipPath>
    <clipPath
       clipPathUnits="userSpaceOnUse"
       id="clipPath154">
      <path
         d="M 324,120 H 676 V 621 H 324 Z"
         transform="translate(-517.51148,-505.59001)"
         id="path154" />
    </clipPath>
    <clipPath
       clipPathUnits="userSpaceOnUse"
       id="clipPath155">
      <path
         d="M 324,120 H 676 V 621 H 324 Z"
         transform="translate(-531.4026,-505.59001)"
         id="path155" />
    </clipPath>
    <clipPath
       clipPathUnits="userSpaceOnUse"
       id="clipPath156">
      <path
         d="M 324,120 H 676 V 621 H 324 Z"
         transform="translate(-545.78932,-505.59001)"
         id="path156" />
    </clipPath>
    <mask
       maskUnits="userSpaceOnUse"
       id="mask3">
      <g
         id="g5"
         transform="matrix(1.0923167,0,0,1.078,49.935839,141.4127)">
        <g
           id="g4">
          <path
             id="path3"
             d="m -176.5,-251 h 353 v 502 h -353 z"
             style="fill:#ffffff;fill-opacity:1;fill-rule:nonzero;stroke:none"
             transform="matrix(0.47659194,0,0,0.48292145,49.95859,81.844287)"
             clip-path="url(#clipPath40)" />
        </g>
      </g>
    </mask>
    <mask
       maskUnits="userSpaceOnUse"
       id="mask5">
      <g
         id="g7"
         transform="matrix(1.0923167,0,0,1.078,49.933475,141.4045)">
        <g
           id="g6">
          <path
             id="path5"
             d="m -176.5,-251 h 353 v 502 h -353 z"
             style="fill:#ffffff;fill-opacity:1;fill-rule:nonzero;stroke:none"
             transform="matrix(0.47659194,0,0,0.48292145,49.95859,81.844287)"
             clip-path="url(#clipPath40)" />
        </g>
      </g>
    </mask>
    <mask
       maskUnits="userSpaceOnUse"
       id="mask7">
      <g
         id="g9"
         transform="matrix(1.0923167,0,0,1.078,49.935326,141.40484)">
        <g
           id="g8">
          <path
             id="path7"
             d="m -176.5,-251 h 353 v 502 h -353 z"
             style="fill:#ffffff;fill-opacity:1;fill-rule:nonzero;stroke:none"
             transform="matrix(0.47659194,0,0,0.48292145,49.95859,81.844287)"
             clip-path="url(#clipPath40)" />
        </g>
      </g>
    </mask>
    <clipPath
       clipPathUnits="userSpaceOnUse"
       id="clipPath9">
      <path
         d="M 12.882737,99.233207 H 196.13019 V 360.0484 H 12.882737 Z"
         id="path9"
         style="stroke-width:0.23045" />
    </clipPath>
    <clipPath
       clipPathUnits="userSpaceOnUse"
       id="clipPath10">
      <path
         d="M 12.880373,99.225003 H 196.12782 V 360.04019 H 12.880373 Z"
         id="path10"
         style="stroke-width:0.23045" />
    </clipPath>
    <clipPath
       clipPathUnits="userSpaceOnUse"
       id="clipPath11">
      <path
         d="M 12.882224,99.225348 H 196.12967 V 360.04054 H 12.882224 Z"
         id="path11"
         style="stroke-width:0.23045" />
    </clipPath>
  </defs>
  <g
     inkscape:label="Layer 1"
     inkscape:groupmode="layer"
     id="layer1">
    <path
       d="M 48.667697,249.17039 H 160.50906 V 141.03791 Z"
       style="fill:#ff8900;fill-opacity:1;fill-rule:evenodd;stroke:none"
       transform="matrix(0.91548545,0,0,0.92764382,-45.715064,-131.17333)"
       clip-path="url(#clipPath11)"
       id="path44"
       mask="url(#mask7)" />
    <path
       d="M 160.34192,141.18811 H 48.500556 V 249.3206 Z"
       style="fill:#e43206;fill-opacity:1;fill-rule:evenodd;stroke:none"
       transform="matrix(0.91548545,0,0,0.92764382,-45.71337,-131.17301)"
       clip-path="url(#clipPath10)"
       id="path45"
       mask="url(#mask5)" />
    <path
       d="m 57.685115,209.6753 -0.105658,-0.2771 0.05736,-17.0697 0.05735,-17.0697 5.935289,-0.0591 5.93529,-0.0591 1.435738,0.33298 1.435713,0.33296 1.358134,0.68557 1.358161,0.68562 1.082306,1.01237 1.082308,1.01238 0.679609,1.38045 0.679585,1.38045 0.241286,1.55954 0.241288,1.55953 -0.242579,1.46351 -0.242579,1.46349 -0.554058,1.21023 -0.554083,1.21026 -1.068512,1.14389 -1.068486,1.1439 -1.163837,0.65784 -1.163864,0.6578 0.157843,0.25601 0.157846,0.25602 5.396731,7.38559 5.396732,7.3856 0.121939,0.31793 0.121939,0.31794 -3.071896,-0.005 -3.071871,-0.005 -5.623708,-7.5398 -5.623708,-7.53978 -2.246093,0.0628 -2.246068,0.0628 -0.05838,7.48186 -0.05838,7.48184 h -2.331681 -2.331707 z m 12.592193,-20.02336 1.023923,-0.34889 0.878272,-0.95282 0.878297,-0.95283 0.250071,-1.20489 0.250072,-1.20489 -0.253688,-1.18364 -0.253946,-1.18362 -0.874578,-0.94879 -0.874578,-0.94881 -1.023922,-0.34887 -1.023897,-0.34889 h -3.396628 -3.396627 v 4.98791 4.98789 h 3.396627 3.396628 z m 16.665564,19.9125 0.144927,-0.38794 6.899768,-17.01427 6.899793,-17.01429 h 2.37697 2.37697 l 0.1116,0.27711 0.11161,0.2771 6.80832,16.73718 6.80829,16.73717 0.11264,0.38794 0.11263,0.38797 h -2.64328 -2.64328 l -1.65001,-4.1001 -1.65,-4.10011 -7.85686,0.0542 -7.856859,0.0542 -1.651168,4.04573 -1.651166,4.04576 h -2.652898 -2.652925 z m 22.071858,-12.85768 6.2e-4,-0.16637 -2.82731,-7.25973 -2.8273,-7.25974 -0.11083,0.005 -0.11083,0.005 -2.71224,7.03286 -2.712211,7.03292 -0.137953,0.38794 -0.137952,0.38795 h 5.787496 5.78752 z m 11.89623,13.09787 -0.14777,-0.14777 v -17.25445 -17.25444 h 2.43853 2.43853 v 17.40224 17.40223 h -2.29074 -2.29073 z m 12.04485,-17.25445 v -17.40224 h 2.43852 2.43853 v 14.96372 14.96367 h 8.20235 8.20231 v 2.43856 2.43852 h -10.64084 -10.64087 z"
       style="fill:#ffffff;fill-opacity:1;fill-rule:nonzero;stroke:#000000;stroke-width:1.328;stroke-linecap:butt;stroke-linejoin:miter;stroke-miterlimit:4;stroke-dasharray:none;stroke-opacity:1"
       transform="matrix(0.73783293,0,0,0.74763193,-27.797203,-93.592171)"
       clip-path="url(#clipPath9)"
       id="path46"
       mask="url(#mask3)" />
  </g>
</svg>
